<?xml version="1.0" encoding="utf-8"?>
<!-- Generator: Adobe Illustrator 27.2.0, SVG Export Plug-In . SVG Version: 6.00 Build 0)  -->
<svg version="1.1" id="Слой_1" xmlns="http://www.w3.org/2000/svg" xmlns:xlink="http://www.w3.org/1999/xlink" x="0px" y="0px"
	 viewBox="0 0 150 76" style="enable-background:new 0 0 150 76;" xml:space="preserve">
<style type="text/css">
	.st0{fill:#F05A29;}
	.st1{fill:#004359;}
</style>
<path class="st0" d="M95.6,6c-1.3,0-2.5,0.2-3.6,0.7c-1.1,0.5-2.1,1.2-3,2c-0.9,0.9-1.5,1.9-2,3c-0.5,1.1-0.7,2.3-0.7,3.6v9.4h9.4
	c1.3,0,2.5-0.2,3.7-0.7c1.2-0.5,2.2-1.2,3-2c0.8-0.8,1.5-1.9,2-3c0.5-1.1,0.7-2.4,0.7-3.7c0-1.3-0.2-2.5-0.7-3.6
	c-0.5-1.1-1.2-2.1-2-3c-0.8-0.8-1.9-1.5-3-2C98.1,6.2,96.9,6,95.6,6"/>
<path class="st1" d="M109.8,10.1c-0.8-1.8-1.9-3.4-3.2-4.7c-1.4-1.3-3-2.4-4.8-3.2c-1.7-0.7-3.4-1.1-5.3-1.1v0c-0.1,0-0.3,0-0.4,0
	l0,0l0,0c-2.1,0-4,0.4-5.8,1.2c-1.8,0.8-3.4,1.8-4.7,3.2c-0.2,0.2-0.3,0.4-0.5,0.6c-0.2-0.2-0.3-0.4-0.5-0.6c-0.3-0.3-0.6-0.6-1-0.9
	l-0.4-0.3c-0.2-0.2-0.5-0.3-0.7-0.5c-0.2-0.1-0.3-0.2-0.5-0.3c-0.2-0.1-0.4-0.3-0.6-0.4c-0.2-0.1-0.4-0.2-0.5-0.3l-0.3-0.1l0,0
	c-0.2-0.1-0.5-0.3-0.7-0.4C78,1.4,76,1,74,1c-2.4,0-4.7,0.5-6.8,1.6c-1.6,0.9-3.1,2-4.3,3.3c-1.2-1.3-2.6-2.4-4.2-3.3
	C56.6,1.5,54.3,1,51.9,1c-2,0-4,0.4-5.8,1.2c-1.8,0.8-3.4,1.8-4.7,3.2c-1.3,1.3-2.4,2.9-3.2,4.7c-0.8,1.8-1.2,3.7-1.2,5.8v14.9h7.7
	V15.9c0-1,0.2-1.9,0.6-2.8c0.4-0.9,0.9-1.6,1.5-2.3c0.7-0.7,1.4-1.2,2.3-1.5c0.9-0.4,1.8-0.6,2.8-0.6c1,0,1.9,0.2,2.8,0.6
	c0.9,0.4,1.7,0.9,2.3,1.5c0.7,0.7,1.2,1.4,1.5,2.3c0.4,0.9,0.6,1.8,0.6,2.8v14.9h7.7V15.9c0-1,0.2-1.9,0.6-2.8
	c0.4-0.9,0.9-1.6,1.5-2.3c0.7-0.7,1.4-1.2,2.3-1.5C72,8.9,73,8.7,74,8.7c1,0,1.9,0.2,2.8,0.6c0.9,0.4,1.7,0.9,2.3,1.5
	c0.7,0.7,1.2,1.4,1.5,2.3c0.4,0.9,0.6,1.8,0.6,2.8l0,0V38h7.7v-7.2h7.2c2,0,4-0.4,5.8-1.2c1.8-0.8,3.4-1.8,4.8-3.2
	c1.4-1.4,2.4-3,3.2-4.8c0.8-1.8,1.2-3.8,1.2-5.8C111,13.8,110.6,11.8,109.8,10.1 M102.7,18.7c-0.4,0.9-0.9,1.7-1.5,2.3
	c-0.7,0.7-1.4,1.2-2.3,1.5c-0.9,0.4-1.8,0.6-2.8,0.6h-7.2v-7.2h0v-0.1c0-0.4,0-0.8,0.1-1.2l0-0.2c0.1-0.5,0.2-0.9,0.4-1.3
	c0.4-0.9,0.9-1.6,1.5-2.3c0.3-0.3,0.7-0.6,1.1-0.9c0.4-0.3,0.8-0.5,1.2-0.7c0.9-0.4,1.8-0.5,2.8-0.6c1,0,1.9,0.2,2.8,0.6
	c0.9,0.4,1.7,0.9,2.3,1.5c0.7,0.7,1.2,1.4,1.5,2.3c0.4,0.9,0.6,1.8,0.6,2.8C103.3,16.9,103.1,17.8,102.7,18.7z"/>
<path class="st1" d="M22.3,58c-0.6-0.6-1.3-1.1-2.1-1.4c-0.8-0.3-1.7-0.5-2.6-0.5c-1.1,0-2.1,0.2-3.1,0.7c-0.9,0.5-1.7,1.2-2.3,2
	c-0.6-0.8-1.4-1.5-2.3-2c-0.9-0.5-2-0.7-3.1-0.7c-0.9,0-1.8,0.2-2.6,0.5C3.3,56.9,2.6,57.4,2,58c-0.6,0.6-1.1,1.3-1.4,2.1
	C0.2,61,0,61.8,0,62.8v6.8h2.7v-6.8c0-0.6,0.1-1.1,0.3-1.6c0.2-0.5,0.5-0.9,0.9-1.3c0.4-0.4,0.8-0.7,1.3-0.9c0.5-0.2,1-0.3,1.6-0.3
	c0.6,0,1.1,0.1,1.6,0.3c0.5,0.2,0.9,0.5,1.3,0.9c0.4,0.4,0.7,0.8,0.9,1.3c0.2,0.5,0.3,1,0.3,1.6v6.8h2.7v-6.8c0-0.6,0.1-1.1,0.3-1.6
	c0.2-0.5,0.5-0.9,0.9-1.3c0.4-0.4,0.8-0.7,1.3-0.9c0.5-0.2,1-0.3,1.6-0.3c0.6,0,1.1,0.1,1.6,0.3c0.5,0.2,0.9,0.5,1.3,0.9
	c0.4,0.4,0.7,0.8,0.9,1.3c0.2,0.5,0.3,1,0.3,1.6v6.8h2.7v-6.8c0-0.9-0.2-1.8-0.5-2.6C23.4,59.3,22.9,58.6,22.3,58"/>
<path class="st1" d="M43.3,50.3h-2.7v12.4c0,0.9,0.2,1.8,0.5,2.6c0.4,0.8,0.8,1.5,1.5,2.2c0.6,0.6,1.3,1.1,2.2,1.5
	c0.8,0.3,1.7,0.5,2.6,0.5h1.3v-2.7h-1.3c-0.6,0-1.1-0.1-1.6-0.3c-0.5-0.2-0.9-0.5-1.3-0.9c-0.4-0.4-0.7-0.8-0.9-1.3
	c-0.2-0.5-0.3-1-0.3-1.6v-4h5.4v-2.7h-5.4V50.3"/>
<path class="st1" d="M70.4,66.5c-0.5-0.2-0.9-0.5-1.3-0.9c-0.4-0.4-0.7-0.8-0.9-1.3c-0.2-0.5-0.3-1-0.3-1.6V50.3h-2.7v12.4
	c0,0.9,0.2,1.8,0.5,2.6c0.4,0.8,0.8,1.5,1.5,2.2c0.6,0.6,1.3,1.1,2.2,1.5c0.8,0.3,1.7,0.5,2.6,0.5h1.3v-2.7H72
	C71.4,66.9,70.9,66.8,70.4,66.5"/>
<path class="st1" d="M79.9,66.5c-0.5-0.2-0.9-0.5-1.3-0.9c-0.4-0.4-0.7-0.8-0.9-1.3c-0.2-0.5-0.3-1-0.3-1.6V50.3h-2.7v12.4
	c0,0.9,0.2,1.8,0.5,2.6c0.4,0.8,0.8,1.5,1.5,2.2c0.6,0.6,1.3,1.1,2.2,1.5c0.8,0.3,1.7,0.5,2.6,0.5h1.3v-2.7h-1.3
	C81,66.9,80.4,66.8,79.9,66.5"/>
<path class="st1" d="M148,58.8v-2.7h-5.4v-5.7h-2.7v12.4c0,0.9,0.2,1.8,0.5,2.6c0.4,0.8,0.8,1.5,1.5,2.2c0.6,0.6,1.3,1.1,2.2,1.5
	c0.8,0.3,1.7,0.5,2.6,0.5h1.3v-2.7h-1.3c-0.6,0-1.1-0.1-1.6-0.3c-0.5-0.2-0.9-0.5-1.3-0.9c-0.4-0.4-0.7-0.8-0.9-1.3
	c-0.2-0.5-0.3-1-0.3-1.6v-4H148"/>
<path class="st1" d="M61.7,58c-0.6-0.6-1.3-1.1-2.1-1.4C58.8,56.2,57.9,56,57,56c-0.9,0-1.8,0.2-2.6,0.5c-0.8,0.4-1.5,0.8-2.2,1.4
	c-0.6,0.6-1.1,1.3-1.5,2.1c-0.4,0.8-0.5,1.7-0.5,2.6c0,0.9,0.2,1.8,0.5,2.6c0.3,0.8,0.8,1.5,1.5,2.2c0.6,0.6,1.3,1.1,2.2,1.5
	c0.8,0.3,1.7,0.5,2.6,0.5h6.7v-6.8c0-0.9-0.2-1.8-0.5-2.6C62.8,59.3,62.3,58.6,61.7,58 M61,66.9H57c-0.6,0-1.1-0.1-1.6-0.3
	c-0.5-0.2-0.9-0.5-1.3-0.9c-0.4-0.4-0.7-0.8-0.9-1.3c-0.2-0.5-0.3-1-0.3-1.6c0-0.6,0.1-1.1,0.3-1.6c0.2-0.5,0.5-0.9,0.9-1.3
	c0.4-0.4,0.8-0.7,1.3-0.9c0.5-0.2,1-0.3,1.6-0.3c0.6,0,1.1,0.1,1.6,0.3c0.5,0.2,0.9,0.5,1.3,0.9c0.4,0.4,0.7,0.8,0.9,1.3
	c0.2,0.5,0.3,1,0.3,1.6V66.9z"/>
<path class="st1" d="M107.7,58.1c-0.6-0.6-1.3-1.1-2.2-1.4c-0.8-0.3-1.7-0.5-2.6-0.5c-0.9,0-1.8,0.2-2.6,0.5
	c-0.8,0.4-1.5,0.8-2.1,1.4c-0.6,0.6-1.1,1.3-1.4,2.1c-0.4,0.8-0.5,1.7-0.5,2.6V75h2.7v-5.4h4.1c0.9,0,1.8-0.2,2.6-0.5
	c0.8-0.4,1.5-0.8,2.2-1.5c0.6-0.6,1.1-1.3,1.5-2.2c0.3-0.8,0.5-1.7,0.5-2.6c0-0.9-0.2-1.8-0.5-2.6C108.8,59.4,108.3,58.7,107.7,58.1
	 M106.7,64.4c-0.2,0.5-0.5,0.9-0.9,1.3c-0.4,0.4-0.8,0.7-1.3,0.9c-0.5,0.2-1,0.3-1.6,0.3h-4.1v-4.1c0-0.6,0.1-1.1,0.3-1.6
	c0.2-0.5,0.5-0.9,0.9-1.3c0.4-0.4,0.8-0.7,1.3-0.9c0.5-0.2,1-0.3,1.6-0.3c0.6,0,1.1,0.1,1.6,0.3c0.5,0.2,0.9,0.5,1.3,0.9
	c0.4,0.4,0.7,0.8,0.9,1.3c0.2,0.5,0.3,1,0.3,1.6C107,63.4,106.9,63.9,106.7,64.4z"/>
<path class="st1" d="M115.3,56.6c-0.8,0.4-1.5,0.8-2.2,1.4c-0.6,0.6-1.1,1.3-1.5,2.1c-0.3,0.8-0.5,1.7-0.5,2.6v6.8h2.7v-6.8
	c0-0.6,0.1-1.1,0.3-1.6c0.2-0.5,0.5-0.9,0.9-1.3c0.4-0.4,0.8-0.7,1.3-0.9c0.5-0.2,1-0.3,1.6-0.3h1.3V56h-1.3
	C117,56,116.1,56.2,115.3,56.6"/>
<rect x="120.8" y="56" class="st1" width="2.6" height="13.5"/>
<path class="st1" d="M137.7,60.1c-0.3-0.8-0.8-1.5-1.4-2.1c-0.6-0.6-1.3-1.1-2.1-1.4c-0.8-0.3-1.6-0.5-2.4-0.5v0h-6.8v13.3h2.6V58.7
	h4v0c0.5,0,1.1,0.1,1.6,0.3c0.5,0.2,0.9,0.5,1.3,0.9c0.4,0.4,0.7,0.8,0.9,1.3c0.2,0.5,0.3,1,0.3,1.6l0,0h0v6.7h2.6v-6.7h0l0,0
	C138.2,61.8,138.1,60.9,137.7,60.1"/>
<path class="st1" d="M39.1,62.7c0-0.9-0.2-1.8-0.5-2.6c-0.3-0.8-0.8-1.5-1.4-2.1c-0.6-0.6-1.3-1.1-2.1-1.4c-0.8-0.3-1.7-0.5-2.6-0.5
	c-0.9,0-1.8,0.2-2.6,0.5c-0.8,0.4-1.5,0.8-2.1,1.4c-0.6,0.6-1.1,1.3-1.4,2.1c-0.4,0.8-0.5,1.7-0.5,2.6c0,0.9,0.2,1.7,0.5,2.6
	c0.3,0.8,0.8,1.5,1.4,2.2c0.6,0.6,1.4,1.1,2.2,1.4c0.8,0.3,1.7,0.5,2.6,0.5h6.6v-2.6h-6.6c-0.9,0-1.7-0.3-2.4-0.8
	c-0.7-0.5-1.2-1.2-1.4-2h10.4L39.1,62.7 M34.6,61.4c-0.7,0-1.4,0-2.2,0c-0.8,0-1.5,0-2.2,0c-0.7,0-1.2,0-1.5,0
	c0.2-0.6,0.5-1.1,0.9-1.5c0.8-0.8,1.7-1.2,2.8-1.2c0.9,0,1.7,0.3,2.4,0.8c0.7,0.5,1.1,1.2,1.4,2C35.9,61.4,35.3,61.4,34.6,61.4z"/>
</svg>
