<svg width="1280" height="1280" viewBox="0 0 1280 1280" fill="none" xmlns="http://www.w3.org/2000/svg">
<path d="M300.8 732.48H333.44L334.08 763.84L358.4 861.12L361.6 857.92L368.64 849.6L374.4 842.56L381.44 834.24L387.2 827.2L394.24 818.88L400 811.84L407.04 803.52L412.8 796.48L419.84 788.16L424.32 782.4H474.24L481.28 790.72L487.04 797.76L494.08 806.08L499.84 813.12L506.88 821.44L512.64 828.48L519.68 836.8L525.44 843.84L532.48 852.16L538.24 859.2L540.16 861.12L564.48 763.84L565.12 732.48H597.76L598.4 733.12V754.24L604.16 755.52L746.24 802.88L762.88 809.92L776.96 817.6L788.48 825.28L796.8 831.68L805.12 838.72L820.48 854.08L827.52 863.04L834.56 872.64L842.24 885.44L847.36 895.68L852.48 907.2L858.24 924.48L862.08 941.12L881.92 1060.16L898.56 1159.36V1162.56H0L1.28 1152.32L36.48 941.12L40.32 924.48L46.08 907.2L51.84 894.4L59.52 879.68L65.92 870.08L73.6 859.84L81.28 850.88L95.36 836.8L102.4 831.04L114.56 822.08L127.36 814.4L137.6 809.28L149.12 804.16L179.2 793.92L298.24 754.24H300.16V733.12L300.8 732.48ZM303.36 787.52L165.12 833.6L150.4 840L139.52 845.76L129.92 852.16L121.6 858.56L112.64 866.24L106.24 872.64L100.48 879.68L95.36 886.08L88.96 895.68L82.56 907.2L76.8 920L71.68 936L68.48 952L49.92 1063.36V1064.64L56.32 1065.92L153.6 1078.08H158.08L158.72 1076.8L168.32 981.44V978.88L200.96 982.72L186.88 1124.8V1129.28H368.64L369.92 1123.52L398.72 921.28L398.08 916.8L379.52 889.28L376.32 892.48L370.56 898.88L364.8 905.92L357.76 914.24L352 921.28L344.96 929.6L342.4 932.8L340.48 927.04L305.92 788.8L305.28 787.52H303.36ZM593.28 787.52L590.08 799.04L556.8 932.16H555.52L548.48 923.84L542.72 916.8L535.68 908.48L529.92 901.44L522.88 893.12L519.68 889.28L517.12 891.84L499.84 918.08L500.48 925.76L529.28 1127.36L529.92 1129.28H711.68L711.04 1117.76L697.6 982.72L720.64 980.16L730.24 978.88L732.8 1006.4L739.84 1076.8L740.48 1078.08L750.08 1077.44L848 1065.28L848.64 1062.72L829.44 947.52L825.6 931.52L821.76 920L816 907.2L810.88 897.6L803.2 886.08L798.08 879.68L790.4 870.72L783.36 863.68L776.32 857.92L768 851.52L754.56 843.2L739.84 836.16L723.84 830.4L595.2 787.52H593.28ZM440.32 815.68L434.56 822.08L428.8 829.12L421.76 837.44L416 844.48L408.96 852.8L403.2 859.84L401.92 861.76L402.56 864.32L421.12 892.48L433.28 910.4L415.36 1036.48L402.56 1126.08V1129.28H496L495.36 1120.96L465.28 911.04L469.76 904L488.32 875.84L496.64 863.68L496 860.48L490.24 854.08L484.48 847.04L477.44 838.72L471.68 831.68L464.64 823.36L458.88 816.32L458.24 815.68H440.32ZM44.16 1097.92L39.04 1128V1129.28H152.96L153.6 1128.64L154.88 1115.84V1111.36L48.64 1097.92H44.16ZM849.92 1097.92L747.52 1110.72L743.68 1111.36L744.32 1121.6L744.96 1128L745.6 1129.28H859.52L855.68 1104.96L854.4 1097.92H849.92Z" fill="#87B9B0"/>
<path d="M383.36 137.28H515.2L515.84 137.92L516.48 146.88L539.52 154.56L554.24 160.96L569.6 168.64L582.4 176.32L592.64 183.36L603.52 191.68L611.84 198.72L618.24 204.48L627.2 212.8L631.68 217.92L639.36 226.24L646.4 235.2L654.72 246.72L662.4 258.88L668.16 269.12L673.28 278.72L680.96 296.64L688.64 319.68L693.12 338.88L695.04 352.32H702.08L711.68 354.24L719.36 357.44L727.04 361.92L735.36 369.6L739.84 376L743.68 383.68L746.24 392L746.88 395.84V408.64L744.32 418.88L739.2 429.12L734.72 434.88L728.96 440.64L720 446.4L714.24 448.96H712.32L714.88 453.44L720.64 462.4L725.76 473.28L728.96 484.16L730.24 491.84V511.04L727.68 523.84L723.2 536L717.44 546.24L711.68 553.92L704.64 561.6L697.6 567.36L688.64 573.12L679.68 577.6L668.16 581.44L658.56 583.36H656.64L655.36 589.12L650.24 603.2L641.92 620.48L633.6 633.92L625.92 644.16L620.16 651.2L612.48 659.52L542.08 729.92L532.48 736.96L521.6 742.72L508.16 747.2L498.56 749.12L488.96 749.76H409.6L396.16 748.48L384 745.28L374.4 741.44L364.16 735.68L357.76 730.56L351.36 724.8L281.6 655.04L275.84 648L269.44 640.32L261.76 628.8L254.08 615.36L248.32 603.2L242.56 587.2L241.92 583.36L232.96 582.08L222.08 578.88L213.12 575.04L203.52 569.28L196.48 563.52L190.72 558.4L184.96 551.36L179.2 543.04L174.08 532.8L170.24 521.28L168.32 510.4V492.48L170.88 479.68L174.72 468.8L180.48 457.92L185.6 450.88L186.24 449.6L176 445.12L168.32 439.36L162.56 433.6L156.8 424.64L153.6 416.96L151.68 408V395.84L154.24 385.6L156.8 379.2L161.92 371.52L168.32 364.48L176.64 358.72L184.96 354.88L192 352.96L196.48 352.32H203.52L205.44 338.88L209.28 322.24L215.04 303.68L222.08 285.76L227.84 273.6L236.16 258.88L243.84 246.72L252.8 234.56L258.56 227.52L266.24 218.56L284.8 200L291.84 194.24L301.44 186.56L314.24 177.6L327.04 169.92L344.32 160.96L359.04 154.56L382.08 146.88L382.72 137.92L383.36 137.28ZM416.64 171.2L416 319.04H383.36L382.72 182.08L376.96 183.36L364.16 188.48L348.16 196.16L336 203.2L326.4 209.6L316.16 217.28L307.84 224.32L300.16 231.36L289.28 242.24L283.52 249.28L275.84 258.88L265.6 274.24L259.2 285.76L254.08 296L247.68 310.72L241.92 328.64L238.08 345.28L237.44 352.32H661.12L660.48 344.64L656.64 328.64L652.8 316.48L647.04 301.12L640 286.4L632.32 272.96L624 260.8L617.6 252.48L611.84 245.44L604.16 237.12L592.64 225.6L585.6 219.84L576 212.16L562.56 203.2L549.12 195.52L531.84 187.2L517.76 182.08H515.84L515.2 319.04H482.56L481.92 171.2H416.64ZM199.04 385.6L193.28 387.52L188.16 392L185.6 396.48L184.96 399.04V405.44L186.88 410.56L191.36 415.68L196.48 418.24H702.08L707.84 415.04L711.68 410.56L713.6 405.44V398.4L710.4 392L705.28 387.52L699.52 385.6H199.04ZM267.52 452.16V540.48L269.44 557.76L273.28 574.4L277.76 587.2L284.16 601.28L290.56 612.16L298.24 623.04L305.92 632L379.52 705.6L386.56 710.08L394.88 713.92L403.2 715.84H495.36L505.6 713.28L516.48 707.52L525.44 699.84L551.68 673.6L556.16 668.48L595.2 629.44L602.24 620.48L609.92 608.96L617.6 594.88L623.36 580.16L627.2 566.72L629.76 553.28L631.04 540.48V452.16H267.52ZM232.32 455.36L222.72 460.48L214.4 467.52L208.64 475.2L204.16 484.16L201.6 495.04V507.84L204.16 518.08L209.28 528.32L214.4 534.72L219.52 539.84L226.56 544.32L232.96 547.52H234.88L234.24 455.36H232.32ZM664.32 455.36L663.68 547.52L666.88 546.88L674.56 543.04L680.96 537.92L686.72 532.16L691.84 523.84L695.04 516.8L696.96 507.84V494.4L694.4 484.16L689.92 475.2L685.44 469.44L681.6 464.96L673.92 459.2L666.24 455.36H664.32Z" fill="#87B9B0"/>
<path d="M940.8 117.44H976L997.76 119.36L1018.24 122.56L1038.72 127.04L1056 132.16L1074.56 138.56L1092.48 146.24L1102.72 151.36L1118.72 159.68L1132.16 168L1144.32 176.32L1154.56 184L1160.96 189.12L1169.28 196.16L1175.68 201.92L1183.36 208.96L1193.6 219.2L1198.08 224.32L1203.84 230.72L1209.6 237.76L1218.56 249.28L1232.64 270.4L1239.68 282.56L1246.72 295.36L1254.4 312L1261.44 329.92L1268.48 351.68L1272.96 369.6L1276.8 390.08L1279.36 411.84L1280 421.44V456L1278.08 477.76L1274.24 501.44L1269.76 520.64L1264 539.84L1256.96 559.04L1248.64 577.6L1239.68 594.88L1230.08 610.88L1221.76 623.04L1212.8 635.2L1203.84 646.08L1197.44 653.12L1192.96 658.24L1174.4 676.8L1169.28 681.28L1160.96 688.32L1152.64 694.72L1141.12 703.04L1131.52 709.44L1115.52 719.04L1098.24 728L1086.08 733.76L1068.16 740.8L1048.96 747.2L1023.36 753.6L1000.32 757.44L981.12 759.36L967.68 760H949.76L928 758.72L908.16 756.16L888.32 752.32L869.12 747.2L849.92 740.8L831.36 733.12L816.64 726.08L801.92 717.76L789.12 710.08L775.04 700.48L770.56 696L766.72 688.32L765.44 681.28L766.72 675.52L771.2 669.76L777.6 665.28L782.08 663.36L785.28 662.72H790.4L796.8 665.28L802.56 669.76L819.84 680L837.76 689.6L856.32 697.92L873.6 704.32L890.24 709.44L905.6 713.28L928.64 717.12L941.44 718.4H978.56L997.76 716.48L1016.32 713.28L1035.52 708.8L1051.52 703.68L1065.6 698.56L1084.16 690.24L1097.6 683.2L1110.4 675.52L1124.48 665.92L1132.8 659.52L1139.84 653.76L1148.8 646.08L1159.68 635.84L1168.64 626.24L1176.32 617.28L1182.72 608.96L1191.04 597.44L1198.72 585.28L1206.4 571.84L1214.72 555.2L1221.76 537.92L1227.52 520.64L1232 503.36L1235.84 484.16L1237.76 469.44L1239.04 452.8V424.64L1237.76 408L1235.2 389.44L1231.36 370.88L1226.88 354.24L1220.48 335.68L1214.08 320.96L1206.4 304.96L1197.44 289.6L1187.2 274.24L1178.88 263.36L1173.12 256.32L1167.36 249.92L1162.88 244.8L1148.8 230.72L1141.76 224.96L1136 219.84L1123.2 210.24L1109.76 201.28L1100.16 195.52L1086.08 187.84L1068.16 179.52L1050.88 173.12L1034.24 168L1015.04 163.52L995.2 160.32L983.04 159.04L972.8 158.4H944.64L922.88 160.32L899.84 164.16L879.36 169.28L858.24 176.32L841.6 183.36L822.4 192.96L806.4 202.56L796.16 209.6L784 218.56L775.68 225.6L768.64 231.36L762.88 237.12L757.76 241.6L752 247.36L747.52 252.48L740.48 260.16L732.8 264L730.24 264.64H721.28L714.88 262.72L711.68 259.52L709.12 255.68L707.2 248.64V242.24L709.12 235.2L711.68 231.36L719.36 223.04L723.84 217.92L739.84 201.92L744.96 197.44L754.56 189.12L765.44 180.8L775.04 173.76L784.64 167.36L800.64 157.76L817.92 148.8L830.08 143.04L851.84 134.72L872.32 128.32L891.52 123.84L909.44 120.64L931.2 118.08L940.8 117.44Z" fill="#87B9B0"/>
<path d="M848 315.2H869.12L875.52 317.12L881.92 322.88L884.48 329.28L885.12 416.96L918.4 396.48L926.08 392.64H934.4L940.16 395.2L944.64 399.04L947.2 404.16L949.12 412.48L950.4 413.76H954.88L990.72 393.28L993.92 392L999.04 391.36L1006.72 393.28L1012.48 397.76L1015.68 403.52L1016.96 411.2L1018.88 413.12H1022.72L1036.8 404.8L1048.96 397.12L1056 393.28L1057.92 392.64H1066.24L1072 395.2L1075.84 398.4L1079.04 404.16L1079.68 406.72V452.16H1097.6L1105.28 454.08L1112.96 457.92L1119.36 463.04L1123.84 469.44L1127.04 477.12L1128.32 482.88V566.08H1121.92V572.48H832.64V329.28L835.2 323.52L839.68 318.4L845.44 315.84L848 315.2ZM848 328.64L845.44 331.84V383.68H871.68V331.84L869.12 328.64H848ZM845.44 396.48V559.04H871.68V396.48H845.44ZM997.12 404.8L979.84 414.4L964.48 423.36L958.08 426.56L955.52 427.2H949.76L944 425.28L938.24 420.16L935.68 413.76L934.4 407.36L931.84 405.44L927.36 406.08L915.2 413.76L900.48 422.72L887.04 431.04L884.48 432.96V559.04H949.76L950.4 514.24L952.96 508.48L955.52 505.28L961.28 502.08L963.84 501.44H987.52L993.92 504L998.4 508.48L1000.96 514.88L1001.6 559.04H1066.88V409.28L1064.96 406.08L1060.48 405.44L1042.56 416.32L1029.12 424.64L1023.36 426.56H1018.88L1012.48 424.64L1006.72 419.52L1004.16 413.76L1002.88 406.72L1000.32 404.8H997.12ZM1079.68 464.96V471.36L1089.92 473.92L1095.04 476.48L1100.16 480.32L1104.64 486.72L1107.84 494.4L1108.48 498.24L1109.12 559.04H1115.52V486.08L1113.6 477.76L1109.12 471.36L1103.36 467.52L1095.04 464.96H1079.68ZM1079.68 484.8V559.04H1095.68V496.96L1093.12 491.84L1090.56 488.64L1085.44 485.44L1079.68 484.8ZM966.4 513.6L963.2 515.52L962.56 516.8V559.04H988.8V517.44L987.52 514.88L984.96 513.6H966.4Z" fill="#87B9B0"/>
<path d="M548.48 286.4H581.76V319.68H548.48V286.4Z" fill="#87B9B0"/>
<path d="M316.8 286.4H350.08V319.68H316.8V286.4Z" fill="#87B9B0"/>
<path d="M823.04 272.96H835.84L837.12 280.64L838.4 284.48L850.56 286.4L855.68 288.96L858.88 291.52L862.72 297.28L865.28 304.32L865.92 311.36H852.48L851.2 304.96L848.64 300.48L845.44 299.2L836.48 297.92L831.36 295.36L826.88 290.88L823.68 283.84L823.04 280.64V272.96Z" fill="#87B9B0"/>
<path d="M853.76 266.56H858.24L865.92 268.48L872.32 271.68L877.44 276.16L881.92 283.2L883.84 288.96L884.48 292.16V297.92H871.68L869.76 289.6L865.92 283.84L861.44 281.28L853.76 280V266.56Z" fill="#87B9B0"/>
<path d="M1027.84 458.56H1040.64V478.4H1027.84V458.56Z" fill="#87B9B0"/>
<path d="M988.8 458.56H1001.6V478.4H988.8V458.56Z" fill="#87B9B0"/>
<path d="M949.76 458.56H962.56V478.4H949.76V458.56Z" fill="#87B9B0"/>
<path d="M910.72 458.56H923.52V478.4H910.72V458.56Z" fill="#87B9B0"/>
</svg>
