<svg width="1280" height="1280" viewBox="0 0 1280 1280" fill="none" xmlns="http://www.w3.org/2000/svg">
<path d="M621.243 0H659.301L688.039 2.3301L709.786 5.43689L732.311 10.0971L754.835 16.3107L780.466 24.8544L801.437 33.3981L820.854 42.7184L842.602 54.3689L859.689 65.2427L872.893 74.5631L882.214 81.5534L896.194 92.4272L905.515 100.971L911.728 106.408L914.058 107.961V109.515L917.165 111.068L932.699 126.602L938.136 132.816L946.68 142.136L955.223 153.01L961.437 160.777L971.534 174.757L982.408 191.068L991.728 207.379L1002.6 226.796L1012.7 249.32L1021.24 271.845L1029.01 295.146L1034.45 316.893L1039.88 346.408L1042.99 374.369L1043.77 386.796V421.748L1042.21 448.155L1039.88 472.233L1035.22 503.301L1030.56 527.379L1024.35 553.786L1015.03 586.408L1005.71 615.922L998.718 636.116L987.068 666.408L975.417 695.146L954.447 741.748L943.573 764.272L926.485 799.223L911.728 827.961L903.961 842.718L893.864 862.136L883.767 880L873.67 899.417L865.903 912.621L854.252 933.592L847.262 946.019L834.058 968.544L823.961 986.408L812.311 1006.6L802.99 1022.14L790.563 1043.88L781.243 1059.42L771.146 1076.5L760.272 1095.15L754.058 1105.24L733.864 1139.42L694.252 1205.44L679.495 1230.29L673.282 1240.39L663.184 1257.48L657.748 1266.02L654.641 1271.46L650.757 1276.12L643.767 1280H636.777L630.563 1276.12L625.126 1269.9L617.359 1257.48L606.485 1238.83L580.078 1195.34L573.087 1182.91L563.767 1168.16L552.116 1147.96L538.913 1126.21L525.709 1103.69L502.408 1064.85L493.087 1048.54L481.437 1029.13L472.116 1012.82L462.019 995.728L451.146 977.087L439.495 956.116L431.728 942.913L421.631 925.049L412.311 907.961L402.99 891.65L392.117 871.456L379.689 848.932L352.505 796.116L346.291 783.689L328.427 747.184L316.777 721.553L306.68 698.252L295.806 672.621L284.932 643.883L274.058 613.592L264.738 584.854L255.417 550.68L247.65 516.505L242.99 490.874L239.107 460.583L236.777 431.068L236 411.65V394.563L237.553 369.709L240.66 344.078L244.544 322.33L249.981 300.583L258.524 273.398L267.845 248.544L274.058 234.563L281.825 219.806L288.039 208.155L298.913 189.515L316 164.66L326.874 150.68L336.971 139.029L344.738 129.709H346.291L347.845 126.602L368.816 105.631L377.359 98.6408L385.126 91.6505L396 83.1068L407.65 74.5631L420.078 66.0194L433.282 57.4757L451.146 47.3786L469.01 38.0583L482.214 31.8447L506.291 22.5243L530.369 14.7573L558.33 7.76699L586.291 3.1068L608.039 0.776699L621.243 0Z" fill="#87b9b0"/>
<path d="M625.299 206H654.701L672.479 208.051L691.624 212.154L705.299 216.256L716.239 220.359L733.333 228.564L745.641 235.402L753.846 240.872L762.735 247.709L769.573 253.179L777.778 260.701L784.615 266.855L789.402 272.325L794.872 278.479L801.709 287.368L808.547 297.624L816.068 309.932L824.274 327.026L830.427 343.436L835.897 363.949L838.632 378.308L840 394.034V419.333L837.949 437.795L833.846 456.256L829.06 471.983L822.222 489.077L814.017 505.487L803.077 521.897L794.872 532.838L787.35 541.043L779.145 549.932L769.573 558.821L761.368 564.974L749.06 573.863L738.803 580.017L724.444 587.538L709.402 593.692L689.573 599.846L673.162 603.265L656.752 605.316L645.812 606H632.137L610.256 603.949L592.479 600.53L574.701 595.06L558.291 588.906L547.35 583.436L535.726 577.282L528.889 572.496L517.265 564.291L507.692 556.085L502.222 551.299L491.282 540.359L486.496 534.889L478.291 524.632L470.085 512.325L464.615 502.752L457.094 488.393L451.624 474.718L446.154 456.94L443.419 445.316L440.684 426.855L440 419.333V391.299L441.368 378.308L444.786 359.846L448.889 344.803L453.675 330.444L458.462 320.188L465.299 307.197L472.821 294.889L479.658 285.316L487.863 275.744L494.017 268.222L502.906 259.333L510.427 253.179L515.897 248.393L526.838 240.188L540.513 231.983L556.239 223.778L567.179 218.991L585.641 212.838L603.419 208.735L625.299 206Z" fill="#FCFCFC"/>
</svg>
