<svg width="1280" height="1280" viewBox="0 0 1280 1280" fill="none" xmlns="http://www.w3.org/2000/svg">
<path d="M376.875 22.5H754.375L760 24.375L765.625 28.75L803.125 66.25L806.875 69.375V70.625H808.125V71.875H809.375V73.125L811.875 74.375L868.75 131.25L872.5 134.375L875 136.875V138.125L877.5 139.375V140.625L880 141.875L953.75 215.625L956.875 221.875V538.125L966.25 533.75L985 526.25L991.875 524.375L996.875 523.75H1003.12L1013.12 525.625L1020.62 528.75L1027.5 533.125L1032.5 537.5L1037.5 544.375L1042.5 554.375L1050.62 574.375L1064.38 608.125L1073.75 631.25L1084.38 657.5L1096.88 688.125L1115.62 734.375L1129.38 768.125L1138.75 791.25L1149.38 817.5L1161.88 848.125L1171.25 871.25L1180 893.125L1181.88 899.375L1182.5 903.75V913.125L1180.62 921.875L1177.5 929.375L1171.88 937.5L1166.25 943.125L1158.12 948.125L1141.88 955L1110.62 967.5L1093.75 974.375L1086.88 976.25L1082.5 976.875H1075L1065.62 975L1058.12 971.875L1051.25 967.5L1043.75 960L1040 954.375L1035 943.125L1025.62 919.375L1021.88 920L981.875 936.25H980.625L983.75 943.125L986.25 950.625L988.125 960.625V975.625L986.25 985.625L982.5 995.625L978.125 1003.75L972.5 1011.25L963.75 1020L955 1025.62L945.625 1030L936.25 1033.12H935L936.875 1036.88L938.75 1048.75V1056.25L936.875 1068.75L933.75 1078.12L928.75 1088.12L923.75 1095L916.875 1102.5L908.75 1108.75L898.125 1114.38L885.625 1118.12L878.75 1119.38H867.5V1131.88L866.25 1140.62L861.875 1153.75L858.125 1160.62L853.125 1167.5L847.5 1173.75L841.875 1178.75L831.875 1185L821.25 1189.38L810.625 1191.88L803.75 1192.5H795L785.625 1191.25L782.5 1190L781.875 1201.25L779.375 1211.88L774.375 1223.12L768.125 1232.5L761.25 1240L753.125 1246.25L741.25 1252.5L728.75 1256.25L717.5 1257.5L705.625 1256.88L695 1254.38L686.875 1251.25L672.5 1243.12L661.875 1236.88L659.375 1236.25L651.875 1243.12L643.75 1248.12L636.25 1251.88L626.25 1255L619.375 1256.25L609.375 1256.88L598.125 1255.62L588.75 1253.12L578.75 1248.75L570 1243.12L563.75 1237.5L558.75 1232.5L554.375 1226.25L550 1218.75V1217.5L543.125 1221.25L531.25 1225.62L522.5 1227.5L517.5 1228.12H506.875L495.625 1226.25L485 1222.5L475 1216.88L468.75 1211.88L463.125 1206.88L456.25 1197.5L452.5 1191.25L451.875 1188.12L441.875 1193.12L432.5 1196.25L423.125 1198.12L415 1198.75L403.125 1197.5L393.75 1195L381.875 1189.38L373.125 1183.12L365.625 1176.25L358.75 1167.5L353.75 1158.12L350 1146.88L348.75 1141.25L348.125 1135.62V1126.88L349.375 1116.88H341.875L333.75 1115.62L323.75 1113.12L313.75 1108.75L306.875 1105L298.125 1098.12L292.5 1092.5L286.25 1083.75L281.875 1075L279.375 1068.12L277.5 1056.88V1049.38L279.375 1038.12L283.125 1026.88L290 1013.75L295.625 1004.38L306.25 986.25L311.875 976.875L316.875 968.75V964.375L311.875 954.375L307.5 947.5L301.25 940.625L295 936.25L285 931.25L256.25 919.375H254.375L242.5 948.75L237.5 958.125L230.625 965.625L225 970L215.625 974.375L208.75 976.25L204.375 976.875H196.875L188.125 975L178.125 971.25L141.25 956.25L123.125 948.75L116.25 945L110 939.375L105 933.75L100 924.375L97.5 915V902.5L100 892.5L106.875 875.625L116.25 852.5L128.125 823.125L138.125 798.75L160.625 743.125L170.625 718.75L181.25 692.5L190.625 669.375L197.5 652.5L208.125 626.25L220.625 595.625L228.75 575.625L238.125 552.5L243.75 541.875L250.625 534.375L256.875 530L264.375 526.25L271.25 524.375L275.625 523.75H283.75L293.125 525.625L310.625 532.5L321.875 537.5L322.5 77.5L323.75 67.5L327.5 56.25L332.5 47.5L337.5 41.25L343.75 35L352.5 29.375L360.625 25.625L370.625 23.125L376.875 22.5ZM376.25 57.5L369.375 60L363.75 64.375L359.375 70.625L358.125 75L357.5 81.25V551.875L363.125 555.625L369.375 560.625L373.75 565L378.75 573.125L381.875 581.875L383.125 589.375V595L381.25 604.375L377.5 615L370 633.125L367.5 640L370 641.875L390.625 650L407.5 655.625L420.625 658.75L430 660L438.75 660.625H445.625L457.5 659.375L473.125 655.625L486.25 650.625L502.5 643.125L518.125 637.5L534.375 633.75L549.375 631.875H569.375L580 633.125L592.5 635.625L605 639.375L617.5 644.375L631.875 651.875L639.375 656.875L642.5 655.625L649.375 651.25L661.875 644.375L674.375 639.375L686.875 635.625L699.375 633.125L710.625 631.875H730.625L745.625 633.75L761.25 637.5L775.625 642.5L799.375 653.125L810.625 656.875L821.875 659.375L833.75 660.625H844.375L858.75 658.75L873.75 655L894.375 648.125L911.25 641.25L911.875 638.125L904.375 620L899.375 606.875L896.875 596.875V587.5L899.375 577.5L904.375 567.5L910 560.625L917.5 555L921.875 552.5V243.75L766.25 243.125L758.75 241.25L750 236.875L743.75 231.25L739.375 225L736.25 217.5L735 211.875L734.375 57.5H376.25ZM768.75 82.5L769.375 208.75H896.25L893.75 205L860.625 171.875L855.625 167.5L795 106.875H793.75V105.625L788.75 101.25L770 82.5H768.75ZM277.5 558.75L273.75 561.25L271.25 564.375L261.875 586.875L255 604.375L246.25 625.625L235.625 651.875L215 702.5L206.875 722.5L194.375 753.125L182.5 782.5L174.375 802.5L161.875 833.125L150 862.5L133.75 902.5L132.5 906.25V911.25L135.625 915.625L141.875 918.75L197.5 941.25L203.125 941.875L208.125 938.75L211.25 932.5L221.25 908.125L234.375 875.625L250.625 835.625L264.375 801.875L283.125 755.625L294.375 728.125L306.25 698.75L318.75 668.125L326.875 648.125L338.75 618.75L347.5 596.875L348.75 591.875L346.875 586.875L343.125 583.75L320.625 574.375L297.5 565L281.25 558.75H277.5ZM999.375 558.75L990 561.875L965.625 571.875L939.375 582.5L934.375 585.625L931.875 588.75L931.25 592.5L933.75 600.625L952.5 646.875L966.25 680.625L975.625 703.75L986.25 730L998.75 760.625L1008.12 783.75L1018.75 810L1031.25 840.625L1050 886.875L1063.75 920.625L1070 936.25L1073.12 940L1077.5 941.875L1082.5 941.25L1130 921.875L1142.5 916.875L1145.62 914.375L1147.5 910.625L1146.88 904.375L1128.12 858.125L1120 838.125L1110.62 815L1102.5 795L1091.25 767.5L1078.12 735L1070 715L1063.12 698.125L1055 678.125L1045.62 655L1037.5 635L1023.75 601.25L1009.38 565.625L1005.62 560.625L1001.88 558.75H999.375ZM548.125 666.25L534.375 668.75L521.875 672.5L507.5 678.75L495 684.375L478.125 690L464.375 693.125L448.125 695H433.75L416.875 693.125L400.625 689.375L388.125 685.625L364.375 676.875L355.625 673.125H353.75L346.875 690.625L336.875 715L325.625 742.5L315 768.75L305.625 791.875L285 842.5L273.125 871.875L268.125 883.75L268.75 886.875L284.375 893.125L302.5 900.625L311.25 905L321.25 911.875L329.375 919.375L335 925.625L340 932.5H342.5L348.125 927.5L357.5 921.875L369.375 917.5L379.375 915.625H395L405.625 917.5L415.625 921.25L424.375 926.25L430.625 931.25L436.875 936.875L442.5 944.375L447.5 953.125L453.125 968.125L465.625 965.625H481.875L491.875 967.5L501.875 971.25L508.75 975L516.875 981.25L523.75 988.125L530 996.875L535 1006.88L538.125 1015.62L538.75 1017.5L543.75 1016.88L551.25 1015.62L561.875 1015L573.125 1016.25L582.5 1018.75L592.5 1023.12L600 1028.12L608.125 1035L614.375 1042.5L620 1052.5L622.5 1057.5L625.625 1056.88L633.125 1053.75L643.75 1051.25L656.875 1050.62L668.125 1051.88L678.125 1055L688.75 1060L695.625 1065L701.875 1070.62L707.5 1076.88L712.5 1085L716.875 1095L719.375 1104.38L720.625 1115.62L722.5 1117.5L729.375 1121.25L745.625 1130.62L758.125 1138.12L773.125 1146.88L786.25 1154.38L792.5 1156.88L796.25 1157.5H804.375L811.875 1155.62L818.125 1152.5L824.375 1147.5L828.125 1142.5L831.25 1135L832.5 1130V1121.88L830.625 1114.38L827.5 1108.12L823.125 1102.5L814.375 1096.25L804.375 1090.62L787.5 1080.62L771.25 1071.25L754.375 1061.25L718.125 1040L701.25 1030L671.25 1012.5L664.375 1008.12L660.625 1005L657.5 999.375L656.875 996.875V990.625L659.375 984.375L661.25 982.5V981.25L668.75 977.5L671.25 976.875H676.25L683.125 979.375L698.125 988.125L716.25 998.75L781.25 1036.88L831.25 1066.25L845 1074.38L858.125 1081.88L866.25 1084.38H876.875L885 1081.88L891.875 1077.5L897.5 1071.88L901.875 1063.12L903.125 1058.75L903.75 1051.25L901.875 1041.88L898.125 1034.38L892.5 1028.12L883.75 1022.5L868.75 1013.75L850.625 1003.12L800.625 973.75L790 967.5L773.125 957.5L756.875 948.125L749.375 943.125L745.625 938.125L744.375 934.375V925.625L746.875 920.625L749.375 917.5L756.875 913.75H765L771.25 916.25L803.125 935L835 953.75L851.875 963.75L903.125 993.75L910.625 997.5L917.5 999.375H925L932.5 997.5L940 993.75L946.25 988.125L950.625 981.25L953.125 973.125V963.125L951.25 956.25L947.5 948.75L940.625 941.25L930.625 933.75L920.625 926.875L908.125 918.75L891.25 908.75L874.375 899.375L860.625 891.875L840.625 881.25L823.125 871.875L810 864.375L795 856.25L784.375 851.25L768.125 845L753.125 840.625L738.125 837.5L728.75 836.25L720.625 835.625H701.875L685.625 837.5L671.25 840.625L656.875 845L640.625 851.875L622.5 860L605.625 866.25L590.625 870.625L576.875 873.75L560 876.25L545.625 876.875L529.375 875.625L517.5 873.125L506.25 869.375L496.25 864.375L489.375 860.625L481.875 855L475.625 849.375L466.875 840.625L459.375 830.625L452.5 819.375L448.75 811.875L448.125 810V803.125L450.625 796.875L453.75 793.125L463.75 787.5L479.375 778.75L495 769.375L510.625 759.375L526.25 748.75L538.75 740L556.25 726.875L572.5 714.375L583.125 705.625L591.875 698.75L598.75 692.5L605.625 686.875L611.875 681.875L610.625 679.375L596.25 672.5L584.375 668.75L570.625 666.25H548.125ZM713.125 666.25L700 668.125L688.125 671.25L675.625 676.25L666.25 681.25L656.25 688.125L648.125 695L643.125 700L638.125 704.375L630.625 711.25L623.75 716.875L614.375 725L605.625 731.875L596.875 739.375L580.625 751.875L570.625 759.375L558.75 768.125L548.125 775.625L523.75 791.875L511.875 799.375L496.25 808.75L489.375 812.5L490.625 815L497.5 823.125L503.75 828.75L512.5 834.375L522.5 838.75L531.875 841.25L543.125 842.5H553.125L565 841.25L580 838.125L596.25 833.125L613.75 826.25L630 818.75L645.625 812.5L663.75 806.875L683.125 803.125L700 801.25H723.75L741.25 803.125L760.625 806.875L777.5 811.875L790 816.25L805.625 823.125L821.875 831.25L835 838.75L848.75 846.25L865 855L885 865.625L899.375 873.75L915 882.5L928.125 890.625L940 898.125L950.625 905.625L955 908.75L958.125 908.125L983.75 897.5L1011.88 886.25L1010 880L999.375 853.75L992.5 836.875L980.625 807.5L971.875 786.25L961.25 760L949.375 730.625L942.5 713.75L933.125 690.625L926.25 673.125L923.125 673.75L901.875 681.875L883.125 688.125L866.875 691.875L856.25 693.75L841.25 695L825.625 694.375L812.5 692.5L799.375 689.375L786.25 685L773.75 679.375L760.625 673.75L747.5 669.375L735 666.875L728.125 666.25H713.125ZM381.875 950L373.75 952.5L367.5 956.25L361.25 962.5L346.25 987.5L325 1023.75L319.375 1033.12L314.375 1043.12L312.5 1051.25L313.125 1058.75L315.625 1065L320 1070.62L325 1075L335 1080L343.125 1081.88H353.125L360.625 1080L366.25 1076.88L372.5 1071.25L379.375 1060.62L388.75 1044.38L405 1016.88L411.875 1005L417.5 992.5L418.75 987.5V975.625L416.25 968.125L412.5 961.875L408.75 957.5L401.875 953.125L395 950.625L392.5 950H381.875ZM472.5 999.375L465 1000.62L458.75 1003.12L451.875 1008.12L446.875 1013.75L438.125 1028.75L427.5 1046.88L418.125 1062.5L408.75 1078.75L403.125 1088.12L392.5 1106.25L386.875 1115.62L383.75 1124.38L383.125 1128.75V1133.75L385 1141.88L388.125 1148.12L393.125 1154.38L401.25 1160L407.5 1162.5L410 1163.12H421.25L428.75 1160.62L435 1156.88L440.625 1151.88L446.875 1142.5L454.375 1129.38L463.125 1114.38L468.75 1105L479.375 1086.88L495.625 1059.38L502.5 1047.5L505 1041.25L505.625 1038.75V1028.12L503.125 1020L499.375 1013.12L492.5 1005.62L486.25 1001.88L479.375 1000L472.5 999.375ZM557.5 1049.38L547.5 1051.88L540 1056.25L535 1061.25L526.875 1074.38L518.125 1089.38L501.875 1116.88L492.5 1132.5L485 1145.62L481.875 1152.5L481.25 1155V1166.88L483.75 1175L487.5 1181.25L492.5 1186.25L498.75 1190L505 1192.5L508.125 1193.12H517.5L525.625 1190.62L531.25 1187.5L537.5 1181.88L542.5 1175L548.125 1165L556.25 1151.25L582.5 1106.88L588.125 1096.88L590.625 1091.25L591.875 1085.62V1076.88L589.375 1068.12L585.625 1061.88L579.375 1055.62L571.25 1051.25L563.125 1049.38H557.5ZM650 1085L642.5 1086.88L636.25 1090L629.375 1096.25L622.5 1106.88L617.5 1115.62L593.125 1156.88L583.125 1173.75L580 1180.62L578.75 1186.88V1192.5L581.25 1202.5L585 1208.75L590 1214.38L596.25 1218.12L601.875 1220.62L610 1221.88L620 1220.62L630 1215.62L635 1211.25L641.25 1201.88L657.5 1174.38L668.125 1156.25L673.75 1146.88L682.5 1131.88L685 1125.62L685.625 1122.5V1111.25L683.75 1105L680.625 1098.75L674.375 1091.88L665.625 1086.88L657.5 1085H650ZM711.25 1151.25L701.25 1168.12L680 1204.38V1206.88L696.875 1216.88L706.25 1221.25L713.125 1222.5L721.875 1221.88L728.125 1220L735.625 1215.62L741.25 1210L745 1203.75L747.5 1193.75V1186.88L745 1177.5L741.25 1171.25L736.875 1166.25L727.5 1160L712.5 1151.25H711.25Z" fill="url(#paint0_linear_50_160)"/>
<path d="M638.125 208.75H645.625L660 210L670.625 211.875L683.75 215.625L693.125 219.375L703.125 224.375L711.875 229.375L721.875 236.875L734.375 248.125L738.75 253.125L745.625 261.875L751.25 270.625L758.75 285L763.125 296.875L766.25 308.125L768.75 323.125L769.375 332.5V339.375L768.75 349.375L766.25 364.375L762.5 377.5L757.5 390L750.625 403.125L743.125 413.75L737.5 420.625L730.625 428.125L725.625 432.5L718.75 438.125L710.625 443.75L700.625 449.375L690 454.375L675 459.375L663.125 461.875L653.75 463.125L638.125 463.75L624.375 462.5L613.75 460.625L602.5 457.5L590.625 453.125L580.625 448.125L570 441.875L561.875 435.625L554.375 428.75L544.375 418.75L538.125 410.625L532.5 401.875L527.5 393.125L521.25 378.125L517.5 365L515 350L514.375 343.125V330L515.625 317.5L518.125 305L521.875 292.5L526.25 282.5L531.25 272.5L536.875 263.75L542.5 256.25L553.75 243.75L560.625 237.5L570 230.625L582.5 223.125L593.125 218.125L608.125 213.125L618.75 210.625L627.5 209.375L638.125 208.75ZM635 243.75L621.875 245.625L611.25 248.75L600.625 253.125L591.875 258.125L581.875 265.625L575.625 271.25L571.25 276.25L565 284.375L559.375 293.75L554.375 305.625L551.875 313.75L550 323.75L549.375 329.375V343.75L551.875 358.75L556.25 371.875L561.25 381.875L565.625 388.75L571.875 396.875L576.25 401.875L581.25 406.25L587.5 411.25L597.5 417.5L608.125 422.5L617.5 425.625L630 428.125L638.75 428.75H645L657.5 427.5L668.125 425L680 420.625L690.625 415L699.375 408.75L706.875 401.875L712.5 396.25L720 386.25L726.25 374.375L730 364.375L733.125 351.25L734.375 339.375L733.75 325L731.25 312.5L726.875 299.375L720 286.25L712.5 276.25L700.625 264.375L690.625 257.5L681.875 252.5L668.75 247.5L658.125 245L648.125 243.75H635Z" fill="url(#paint1_linear_50_160)"/>
<path d="M426.875 490H497.5L505 491.875L511.875 496.25L516.25 501.875L519.375 509.375V584.375L516.25 591.875L510.625 598.125L505 601.875L496.875 603.75H427.5L420.625 601.875L414.375 598.125L410 593.125L406.875 586.875L405.625 581.25V511.25L407.5 505L411.875 498.125L416.875 493.75L423.75 490.625L426.875 490ZM440.625 525V568.75H484.375V525H440.625Z" fill="url(#paint2_linear_50_160)"/>
<path d="M587.5 495.625H843.125L858.125 496.25L863.125 498.125L867.5 501.875L870.625 507.5L871.875 513.125L870.625 519.375L867.5 524.375L864.375 527.5L860 530L857.5 530.625H573.125L567.5 528.125L563.125 523.75L560.625 518.75L560 516.875V510L562.5 503.75L565.625 500L573.125 496.25L587.5 495.625Z" fill="url(#paint3_linear_50_160)"/>
<path d="M636.875 255H646.25L651.875 257.5L655 260L658.125 265L659.375 269.375L660 277.5L663.125 279.375L670 283.75L675 288.125L678.75 294.375L679.375 296.875V304.375L676.25 310.625L673.75 313.75L668.125 316.875L665.625 317.5H657.5L651.25 314.375L646.25 310.625L643.75 310H639.375L635.625 311.875L633.75 313.125L635 316.875L656.25 320.625L663.75 323.75L671.875 329.375L676.875 334.375L681.875 342.5L685 353.125V363.75L682.5 372.5L678.125 380.625L671.875 387.5L664.375 392.5L660 394.375L659.375 403.75L656.875 410L651.875 415L645.625 417.5H637.5L630 413.75L626.25 408.75L624.375 403.125V394.375L620.625 393.125L613.125 388.125L608.75 384.375L605 378.125L603.75 373.125L604.375 367.5L607.5 361.25L611.875 356.875L618.75 354.375H625L630.625 356.875L637.5 361.875L643.125 362.5L648.125 360.625L649.375 359.375L648.75 356.25L643.75 354.375L630.625 352.5L622.5 350L614.375 345L607.5 338.75L601.875 330L599.375 323.125L598.75 320V308.125L601.875 298.125L606.25 291.25L611.875 285L620.625 279.375L623.75 278.75L624.375 269.375L626.875 262.5L630 258.75L635.625 255.625L636.875 255Z" fill="url(#paint4_linear_50_160)"/>
<path d="M422.5 147.5H611.875L618.125 148.75L623.125 151.875L626.875 156.875L628.75 161.875V168.125L626.25 174.375L621.875 179.375L616.25 181.875L611.875 182.5H420.625L415 180.625L410 176.875L406.875 171.875L405.625 167.5V162.5L408.125 155.625L413.125 150.625L418.125 148.125L422.5 147.5Z" fill="url(#paint5_linear_50_160)"/>
<path d="M745.625 562.5L762.5 563.125L768.75 566.25L773.125 571.25L775 575.625L775.625 581.25L774.375 586.25L770.625 592.5L767.5 595L763.75 596.875L760.625 597.5H573.75L567.5 595L563.125 590.625L560.625 585.625L560 583.125V577.5L562.5 570.625L565 567.5L571.25 563.75L573.125 563.125L745.625 562.5Z" fill="url(#paint6_linear_50_160)"/>
<path d="M519.375 82.5H531.25L548.75 83.125L553.75 85.625L558.125 90L560.625 95L561.25 96.875V103.75L558.75 109.375L554.375 114.375L549.375 116.875L546.25 117.5H419.375L414.375 115.625L409.375 111.25L406.25 105L405.625 102.5V97.5L407.5 91.875L413.125 85.625L418.75 83.125L519.375 82.5Z" fill="url(#paint7_linear_50_160)"/>
<path d="M987.5 617.5H995.625L1001.25 620L1005 623.125L1008.12 628.75L1013.75 641.875L1021.25 661.25L1021.88 663.125V669.375L1019.38 675.625L1015.62 680L1011.25 682.5L1006.88 683.75H1001.88L995 681.25L990.625 677.5L985.625 667.5L975 641.25L973.75 635.625L974.375 630.625L976.25 625.625L980.625 620.625L985.625 618.125L987.5 617.5Z" fill="url(#paint8_linear_50_160)"/>
<path d="M284.375 617.5H291.875L298.125 620L301.25 622.5L305 628.75L305.625 631.25V638.125L303.125 645.625L295.625 664.375L290.625 675.625L286.875 680L281.875 682.5L277.5 683.75H273.125L266.875 681.875L261.875 677.5L258.75 671.875L258.125 669.375V663.125L261.25 653.75L267.5 638.75L272.5 626.875L276.25 621.875L281.875 618.125L284.375 617.5Z" fill="url(#paint9_linear_50_160)"/>
<defs>
<linearGradient id="paint0_linear_50_160" x1="640" y1="22.5" x2="640" y2="1257.5" gradientUnits="userSpaceOnUse">
<stop stop-color="#87B9B0"/>
<stop offset="1" stop-color="#87DCCD"/>
</linearGradient>
<linearGradient id="paint1_linear_50_160" x1="641.875" y1="208.75" x2="641.875" y2="463.75" gradientUnits="userSpaceOnUse">
<stop stop-color="#87B9B0"/>
<stop offset="1" stop-color="#87DCCD"/>
</linearGradient>
<linearGradient id="paint2_linear_50_160" x1="462.5" y1="490" x2="462.5" y2="603.75" gradientUnits="userSpaceOnUse">
<stop stop-color="#87B9B0"/>
<stop offset="1" stop-color="#87DCCD"/>
</linearGradient>
<linearGradient id="paint3_linear_50_160" x1="715.938" y1="495.625" x2="715.938" y2="530.625" gradientUnits="userSpaceOnUse">
<stop stop-color="#87B9B0"/>
<stop offset="1" stop-color="#87DCCD"/>
</linearGradient>
<linearGradient id="paint4_linear_50_160" x1="641.875" y1="255" x2="641.875" y2="417.5" gradientUnits="userSpaceOnUse">
<stop stop-color="#87B9B0"/>
<stop offset="1" stop-color="#87DCCD"/>
</linearGradient>
<linearGradient id="paint5_linear_50_160" x1="517.188" y1="147.5" x2="517.188" y2="182.5" gradientUnits="userSpaceOnUse">
<stop stop-color="#87B9B0"/>
<stop offset="1" stop-color="#87DCCD"/>
</linearGradient>
<linearGradient id="paint6_linear_50_160" x1="667.812" y1="562.5" x2="667.812" y2="597.5" gradientUnits="userSpaceOnUse">
<stop stop-color="#87B9B0"/>
<stop offset="1" stop-color="#87DCCD"/>
</linearGradient>
<linearGradient id="paint7_linear_50_160" x1="483.438" y1="82.5" x2="483.438" y2="117.5" gradientUnits="userSpaceOnUse">
<stop stop-color="#87B9B0"/>
<stop offset="1" stop-color="#87DCCD"/>
</linearGradient>
<linearGradient id="paint8_linear_50_160" x1="997.812" y1="617.5" x2="997.812" y2="683.75" gradientUnits="userSpaceOnUse">
<stop stop-color="#87B9B0"/>
<stop offset="1" stop-color="#87DCCD"/>
</linearGradient>
<linearGradient id="paint9_linear_50_160" x1="281.875" y1="617.5" x2="281.875" y2="683.75" gradientUnits="userSpaceOnUse">
<stop stop-color="#87B9B0"/>
<stop offset="1" stop-color="#87DCCD"/>
</linearGradient>
</defs>
</svg>
