<svg width="1280" height="1280" viewBox="0 0 1280 1280" fill="none" xmlns="http://www.w3.org/2000/svg">
<path d="M451.25 226.25H478.75L500 228.125L520 231.25L538.75 235.625L558.75 241.875L578.75 250L589.375 255L603.125 262.5L614.375 269.375L626.25 277.5L633.75 283.125L643.75 291.25L648.75 295.625L655 301.25L660 305.625V306.875L662.5 308.125L666.875 313.125L671.25 317.5L676.875 324.375L681.875 330L689.375 340L697.5 351.875L703.75 361.875L709.375 371.875L716.25 385L723.75 402.5L731.25 424.375L736.875 446.875L740 466.25L741.875 484.375V521.875L740 540L737.5 555.625L733.75 573.125L726.875 595.625L720 613.125L711.25 631.25L704.375 643.75L696.875 655.625L689.375 666.25L683.125 674.375L677.5 681.25L671.25 688.125L666.875 693.125L638.75 721.25L634.375 726.25L627.5 733.75L621.875 740.625L615 750L608.125 760.625L610 763.75L615.625 771.25L621.25 783.125L624.375 796.25V811.25L622.5 820L618.75 830.625L614.375 838.125L608.125 846.25L604.375 850.625L605 852.5L606.875 853.125L613.125 862.5L617.5 872.5L620 881.875L620.625 885.625V900L618.75 910L615 920L609.375 929.375L602.5 937.5L596.875 942.5L586.875 948.75L576.25 953.125L575.625 954.375V962.5L573.125 978.125L569.375 989.375L564.375 1000L557.5 1010L550 1018.75L542.5 1025.62L533.125 1031.88L522.5 1037.5L509.375 1041.88L499.375 1043.75L493.75 1044.38H436.25L426.875 1043.12L415 1040L404.375 1035.62L395.625 1030.62L388.125 1025L380 1017.5L374.375 1011.25L368.75 1003.12L365 996.875L360 985L356.875 973.75L355.625 965.625L355 953.125L346.875 950L338.75 945.625L330.625 939.375L325 933.75L318.75 925L313.75 914.375L311.25 906.25L310 897.5V888.75L311.875 877.5L315 868.75L320.625 858.125L325.625 851.875L326.25 849.375L321.25 844.375L315 835.625L310 825L307.5 816.25L306.25 806.25V800.625L308.125 788.75L311.25 779.375L316.25 770L320.625 764.375L322.5 761.875L321.875 759.375L316.25 750L308.125 739.375L300.625 730.625L293.125 722.5L283.75 712.5L258.75 687.5L253.125 680.625L246.25 672.5L237.5 660.625L229.375 648.125L221.875 635L215 621.875L207.5 604.375L201.875 588.75L196.25 568.75L191.875 546.25L190 531.875L188.75 516.25V489.375L190.625 468.75L193.75 448.75L198.125 430.625L203.125 413.75L208.125 400.625L214.375 386.25L219.375 376.25L225.625 364.375L231.875 354.375L236.875 346.875L244.375 336.25L252.5 326.25L260 317.5L269.375 307.5L277.5 299.375L284.375 293.75L291.25 287.5L303.75 278.125L320.625 266.875L331.25 260.625L348.125 251.875L361.25 246.25L376.25 240.625L392.5 235.625L411.25 231.25L430 228.125L451.25 226.25ZM450.625 261.25L432.5 263.125L417.5 265.625L401.25 269.375L378.75 276.875L364.375 283.125L353.75 288.125L338.75 296.875L331.875 301.25L321.25 308.75L311.25 316.875L304.375 322.5L299.375 327.5L298.125 328.125V329.375L295.625 330.625L291.875 334.375V335.625H290.625L286.25 340.625L280.625 346.875L273.75 355.625L266.875 365L260.625 374.375L253.75 386.25L246.25 400.625L238.75 418.75L232.5 437.5L228.75 453.125L226.875 461.875L224.375 481.25L223.75 491.875V514.375L225 530.625L228.125 550.625L231.875 566.25L236.25 581.25L243.125 598.75L247.5 608.75L255 622.5L261.25 633.125L268.125 643.125L276.25 653.75L283.125 661.875L291.875 671.25L316.875 696.25L321.25 701.25L329.375 710L335 716.875L343.125 727.5L349.375 736.875L353.125 743.125L355 743.75L361.25 742.5H569.375L576.875 743.75L580.625 738.75L585 731.875L591.875 722.5L598.75 713.75L604.375 707.5L611.25 700L616.875 693.75L643.75 666.875L648.125 661.875L655 653.75L660.625 646.25L668.125 635.625L675 624.375L682.5 610.625L689.375 595.625L695.625 578.125L700 563.125L703.75 545.625L706.25 527.5L707.5 505L706.875 485.625L705.625 472.5L702.5 453.75L697.5 433.75L691.25 415.625L685 401.25L676.875 385L668.125 370.625L660.625 360L651.875 348.75L645.625 341.875L641.25 336.875L627.5 323.125L620.625 317.5L615.625 313.125L603.75 304.375L591.25 296.25L578.125 288.75L561.25 280.625L546.875 275L531.25 270L516.25 266.25L503.125 263.75L488.125 261.875L479.375 261.25H450.625ZM363.75 776.875L357.5 778.75L350.625 783.125L346.25 788.125L342.5 795.625L341.25 804.375L342.5 811.875L346.25 819.375L350.625 824.375L357.5 828.75L363.125 830.625L368.125 831.25H563.125L570 830L578.75 825.625L585 819.375L588.125 813.125L589.375 808.125V799.375L587.5 793.125L583.75 786.875L578.75 781.875L570 777.5L567.5 776.875H363.75ZM372.5 865.625L363.75 866.875L356.875 870.625L351.25 875.625L347.5 881.875L345.625 887.5L345 892.5L346.25 901.25L350 908.75L355 914.375L360.625 917.5L367.5 920L372.5 920.625H551.875L563.125 920L569.375 918.125L575.625 914.375L578.75 911.875L582.5 906.875L585 900L585.625 896.875V888.75L583.75 882.5L580.625 876.875L576.25 871.875L570 868.125L564.375 866.25L558.125 865.625H372.5ZM390.625 955L390 957.5L391.875 969.375L395 978.125L399.375 986.25L405 993.125L411.25 998.75L418.125 1003.12L426.25 1006.88L433.125 1008.75L437.5 1009.38H493.75L502.5 1007.5L510.625 1004.38L518.125 1000L526.25 993.125V991.875H527.5L533.125 983.75L536.875 976.25L539.375 967.5L540.625 961.25V955.625L540 955H390.625Z" fill="#87B9B0"/>
<path d="M1113.12 552.5H1236.25L1242.5 554.375L1248.75 558.125L1253.12 563.125L1256.25 569.375L1257.5 576.25V1185.62L1256.88 1193.75L1254.38 1200L1250 1205.62L1245 1209.38L1239.38 1211.88L1236.25 1212.5L1221.88 1213.12H1120.62L1112.5 1212.5L1105.62 1210L1100.62 1206.25L1096.25 1201.25L1093.75 1196.25L1092.5 1191.88L1091.88 818.125L1092.5 573.125L1094.38 567.5L1097.5 561.875L1101.88 557.5L1106.88 554.375L1113.12 552.5ZM1128.12 586.875L1127.5 587.5V1178.12H1221.88L1222.5 1177.5V587.5L1221.88 586.875H1128.12Z" fill="#87B9B0"/>
<path d="M443.125 299.375H483.75L490.625 301.25L496.875 304.375L503.125 310L507.5 316.25L510.625 323.75L513.75 335.625L517.5 351.875L520 353.75L528.75 356.875L533.75 359.375L537.5 358.75L543.75 354.375L558.125 345.625L566.25 341.875L571.25 340.625H584.375L590.625 342.5L596.875 346.25L604.375 353.125L623.75 372.5L628.125 379.375L630.625 385.625L631.25 388.125V399.375L628.125 409.375L621.875 420.625L615 431.25L612.5 435L613.125 439.375L618.125 451.875L618.75 453.75L626.25 455.625L646.875 460.625L654.375 463.75L661.25 468.125L666.875 474.375L671.25 483.125L672.5 490V525L671.25 533.125L666.875 541.875L661.25 548.125L653.125 553.125L641.875 556.875L620 561.875L618.75 562.5L613.75 575.625L612.5 578.125L613.125 581.875L622.5 596.875L628.125 606.875L631.25 616.875V628.125L629.375 634.375L625.625 641.25L618.125 649.375L599.375 668.125L592.5 672.5L586.25 675L583.125 675.625H572.5L565 673.75L555 668.75L541.25 660L535 656.25L526.875 660L518.125 663.125L515.625 672.5L511.25 691.25L508.125 698.75L503.75 705L500 709.375L493.75 713.75L486.25 716.25L482.5 716.875H443.75L436.25 715L428.75 710.625L423.125 705L418.125 696.875L415 687.5L410 666.25L409.375 662.5L403.75 661.25L393.75 656.875L389.375 657.5L383.125 661.875L370.625 669.375L361.875 673.75L354.375 675.625H343.75L335.625 673.125L328.75 668.75L302.5 642.5L297.5 633.75L295.625 625.625V619.375L297.5 610.625L302.5 600.625L310.625 587.5L314.375 581.875L315 579.375L309.375 565L308.125 562.5L298.75 560L280.625 555.625L273.125 552.5L266.25 548.125L261.25 543.125L256.875 535.625L255 529.375V486.25L257.5 478.75L261.875 472.5L264.375 469.375L272.5 463.75L280 460.625L295.625 456.875L308.125 453.75L315 436.875L313.75 433.75L304.375 418.75L299.375 410L296.25 401.25L295.625 396.875V390L297.5 382.5L300.625 376.25L306.25 370L310.625 365L315 361.25L318.75 356.875L321.25 354.375H322.5L323.75 351.875H325L325.625 350L331.875 345L338.125 341.875L341.875 340.625H355.625L363.75 343.125L372.5 347.5L383.125 354.375L390 358.75L393.125 359.375L405 354.375L409.375 352.5L414.375 331.25L417.5 320.625L421.25 313.75L425.625 308.125L433.125 302.5L440 300L443.125 299.375ZM475 333.75L450 334.375L448.75 338.125L441.25 370.625L437.5 378.125L431.875 381.875L414.375 388.125L398.75 395.625L395 396.875H386.25L378.75 393.125L353.125 376.875L350 375.625L331.25 394.375L332.5 397.5L341.25 411.875L348.125 422.5L351.875 430L353.125 436.25L350.625 444.375L344.375 457.5L339.375 471.25L336.875 477.5L333.125 482.5L328.125 485L310 489.375L290.625 493.75L289.375 496.25V520.625L291.25 522.5L326.875 530.625L333.125 533.75L336.875 538.75L340.625 548.75L346.875 564.375L351.875 575L353.125 581.25L350.625 589.375L345 598.75L335 614.375L331.25 620L331.875 622.5L349.375 640L353.125 639.375L363.75 632.5L375.625 625L384.375 620L388.125 618.75H393.75L401.875 621.875L416.25 628.75L432.5 634.375L437.5 638.125L441.25 645.625L449.375 680.625L450 681.875H477.5L485.625 646.875L487.5 641.875L490 638.125L493.75 635L501.25 631.875L513.75 627.5L523.75 622.5L533.125 618.75H538.75L545.625 621.25L571.25 637.5L575 640H578.125L583.75 634.375L588.125 629.375L595.625 621.875L595 618.75L586.25 605L578.125 591.875L575 585.625L574.375 583.125V577.5L577.5 570L582.5 559.375L586.875 547.5L590 539.375L592.5 535.625L596.25 532.5L602.5 530L627.5 524.375L637.5 521.875V494.375L628.125 491.875L601.25 485.625L595 483.125L590.625 478.125L587.5 470.625L583.125 458.125L575 440.625L574.375 438.125V432.5L577.5 425L586.25 411.25L595.625 396.25L595 393.125L578.125 376.25L575.625 375.625L566.25 381.875L553.125 390L543.75 395.625L540 396.875H531.875L524.375 393.75L514.375 388.75L501.875 384.375L493.75 381.25L488.75 376.875L485.625 369.375L477.5 334.375L475 333.75Z" fill="#87B9B0"/>
<path d="M1170.62 315.625H1179.38L1190 316.875L1199.38 319.375L1209.38 323.75L1216.88 328.125L1225 334.375L1233.75 343.125L1240 351.875L1245 361.875L1248.12 370.625L1250 378.75L1251.25 390L1250.62 400.625L1248.75 411.25L1244.38 423.125L1239.38 432.5L1234.38 439.375L1228.75 445.625L1224.38 450L1215.62 456.25L1205 461.875L1193.75 465.625L1183.12 467.5H1165.62L1155.62 465.625L1144.38 461.875L1141.88 460.625L1140.62 463.125L1135 470L1121.25 487.5L1113.12 497.5L1106.25 506.25L1100.62 513.125L1093.75 521.875L1085.62 531.875L1078.75 540.625L1070.62 550.625L1063.75 559.375L1055.62 569.375L1048.75 578.125L1040.62 588.125L1033.75 596.875L1025.62 606.875L1018.12 616.25L1019.38 619.375L1025 628.125L1030 640L1032.5 650L1033.75 659.375V668.125L1031.88 680.625L1028.75 691.25L1023.75 701.25L1018.75 709.375L1010.62 718.75L1003.12 725L994.375 730.625L983.125 735.625L971.25 738.75L960.625 740H953.125L940 738.125L930 735L919.375 730L911.875 725L908.75 724.375L898.75 732.5L888.75 740L878.75 748.125L862.5 760.625L851.25 769.375L841.875 776.875L831.25 785L821.875 792.5L813.125 799.375L805 805.625L803.125 806.875L807.5 820L809.375 829.375V847.5L806.875 860L803.125 870L797.5 880.625L790.625 889.375L782.5 897.5L772.5 904.375L762.5 909.375L750 913.125L743.75 914.375L736.25 915H730L718.75 913.75L707.5 910.625L694.375 904.375L685.625 898.125L676.875 890L669.375 880L664.375 871.25L660 859.375L658.125 850.625L657.5 845.625V831.875L659.375 820.625L663.125 809.375L669.375 797.5L675.625 789.375L681.875 782.5L692.5 774.375L704.375 768.125L713.75 765L723.75 763.125H743.75L753.125 765L762.5 768.125L772.5 773.125L780.625 778.75L783.125 777.5L800.625 763.75L808.75 757.5L826.25 743.75L837.5 735L846.25 728.125L857.5 719.375L883.75 698.75L887.5 696.25L886.875 693.125L883.75 683.75L881.875 675L881.25 669.375V658.125L883.125 646.25L886.875 635L891.875 625L897.5 616.875L903.125 610.625L908.75 605L917.5 598.75L926.875 593.75L938.125 590L947.5 588.125H966.875L976.875 590L986.25 593.125L988.75 594.375H990.625L998.125 584.375L1005 576.25L1011.88 567.5L1020 557.5L1026.88 548.75L1035 538.75L1041.88 530L1049.38 520.625L1056.25 511.875L1061.88 505L1069.38 495.625L1076.25 486.875L1084.38 476.875L1091.25 468.125L1099.38 458.125L1104.38 451.875L1111.25 443.125L1114.38 439.375L1113.12 436.25L1108.75 430L1103.75 419.375L1100.62 409.375L1098.75 398.75V385L1100.62 374.375L1103.75 364.375L1108.75 353.75L1113.75 346.25L1120.62 338.125L1127.5 331.875L1136.88 325.625L1146.88 320.625L1156.88 317.5L1163.75 316.25L1170.62 315.625ZM1170.62 350.625L1161.88 352.5L1151.88 357.5L1144.38 364.375L1140.62 368.75L1135.62 378.75L1133.75 386.875V396.875L1135.62 404.375L1138.75 411.875L1143.75 418.75L1149.38 424.375L1156.25 428.75L1165 431.875L1173.75 433.125L1181.88 432.5L1190.62 430L1197.5 426.25L1203.75 421.25L1208.75 415.625L1213.75 405.625L1215.62 398.75V385L1213.75 378.125L1208.75 368.125L1203.12 361.875L1198.12 357.5L1189.38 353.125L1183.75 351.25L1178.75 350.625H1170.62ZM956.25 622.5L947.5 623.75L938.75 626.875L930.625 632.5L925 638.125L920 646.875L916.875 655.625L916.25 660V667.5L918.125 676.875L923.125 686.875L929.375 694.375L937.5 700L944.375 703.125L953.125 705H960.625L968.125 703.75L976.25 700.625L983.125 696.25L990.625 688.75L995 681.25L997.5 674.375L998.75 665.625L998.125 656.875L996.25 650L991.25 640L984.375 632.5L978.125 628.125L970 624.375L964.375 623.125L956.25 622.5ZM731.25 797.5L723.125 798.75L715 801.875L708.125 806.25L700.625 813.75L695.625 822.5L693.125 830.625L692.5 834.375V843.75L695 853.75L698.75 861.25L703.75 867.5L710.625 873.125L720.625 878.125L730 880H736.875L746.25 878.125L756.25 873.125L761.875 868.75L766.25 864.375L771.25 855.625L773.75 848.125L774.375 845V832.5L772.5 825L768.125 816.25L763.125 810L757.5 805L747.5 800L740.625 798.125L731.25 797.5Z" fill="#87B9B0"/>
<path d="M900.625 829.375H1013.75L1022.5 830.625L1028.75 833.75L1033.75 838.125L1037.5 844.375L1039.38 849.375L1040 853.75V1187.5L1038.75 1195.62L1035 1202.5L1031.25 1206.88L1023.75 1211.25L1018.12 1212.5L1004.38 1213.12H903.125L895 1212.5L888.75 1210L883.125 1206.25L878.75 1200.62L876.25 1195.62L875 1190V851.25L877.5 843.75L881.875 837.5L886.25 833.75L891.875 830.625L900.625 829.375ZM910 864.375V1178.12H1005V865L1004.38 864.375H910Z" fill="#87B9B0"/>
<path d="M683.75 1009.38H794.375L805 1010.62L811.25 1013.75L816.875 1018.75L820.625 1025L822.5 1032.5V1188.75L821.25 1195.62L817.5 1203.12L813.125 1207.5L804.375 1211.88L801.25 1212.5L786.875 1213.12H685.625L677.5 1212.5L670.625 1210L665.625 1206.25L661.25 1201.25L658.125 1193.75L657.5 1190.62V1031.25L659.375 1025L663.125 1018.75L668.75 1013.75L675 1010.62L683.75 1009.38ZM693.125 1044.38L692.5 1045V1178.12H787.5V1045L786.875 1044.38H693.125Z" fill="#87B9B0"/>
<path d="M460 408.75H468.125L480 410L491.25 412.5L501.875 416.25L511.875 421.25L521.25 426.875L529.375 433.75L536.25 440L541.875 446.875L548.125 455.625L555 468.75L560 483.75L562.5 497.5L563.125 510.625L561.25 527.5L557.5 540.625L553.75 550L548.125 560.625L541.875 569.375L536.25 575.625L532.5 580L527.5 584.375L518.125 591.25L508.125 596.875L496.875 601.875L482.5 605.625L475 606.875L460 607.5L447.5 606.25L434.375 603.125L421.25 598.125L411.875 593.125L401.25 585.625L391.25 576.25L385.625 570L380 561.875L375 553.125L370 541.875L366.875 531.25L365 521.875L364.375 516.25V500L366.25 486.875L369.375 476.25L373.75 465.625L377.5 458.125L385.625 446.25L393.125 438.125L399.375 431.875L410.625 423.75L420.625 418.125L431.25 413.75L443.125 410.625L450.625 409.375L460 408.75ZM457.5 443.75L446.875 445.625L435 450L426.25 455.625L420 460.625L414.375 466.25L408.125 475L403.125 485.625L400 496.875L399.375 501.25V515.625L401.875 526.875L405 535L409.375 543.125L415.625 551.25L421.25 556.875L428.125 561.875L435.625 566.25L445 570L453.75 571.875L460 572.5H466.25L476.875 571.25L486.875 568.125L496.875 563.125L503.125 558.75L509.375 553.125L513.75 548.75L518.125 542.5L523.125 532.5L526.25 523.125L527.5 516.875V500L525 488.125L520 476.875L515.625 470L508.75 461.875L501.25 455.625L491.875 450L482.5 446.25L474.375 444.375L469.375 443.75H457.5Z" fill="#87B9B0"/>
<path d="M462.5 66.875H467.5L473.75 68.75L478.75 72.5L481.875 77.5L483.125 82.5V167.5L481.875 173.125L478.125 178.75L473.125 182.5L469.375 183.75H461.25L455 180.625L451.875 177.5L449.375 173.75L448.125 170V80.625L451.875 73.125L456.25 69.375L460 67.5L462.5 66.875Z" fill="#87B9B0"/>
<path d="M158.75 193.125H165L171.25 195.625L177.5 201.25L232.5 256.25L236.25 262.5L236.875 264.375V272.5L233.75 278.75L230.625 281.875L225.625 285L223.125 285.625H215.625L210.625 283.75L204.375 278.125L148.125 221.875L144.375 214.375V207.5L146.875 201.25L150.625 196.875L156.25 193.75L158.75 193.125Z" fill="#87B9B0"/>
<path d="M765 195H769.375L775.625 196.875L781.875 202.5L784.375 207.5L785 210V215L783.125 220.625L778.125 226.875L723.75 281.25L719.375 284.375L711.25 286.25L703.75 284.375L698.75 280.625L696.25 277.5L694.375 273.125L693.75 266.25L696.25 259.375L701.875 253.125L756.25 198.75L761.875 195.625L765 195Z" fill="#87B9B0"/>
<path d="M36.875 496.875H119.375L125 498.125L130 501.875L133.75 506.875L135 510.625V518.125L131.25 525.625L126.25 530L118.75 531.875H37.5L31.25 530L25.625 525L22.5 518.125V511.25L25 505L29.375 500L34.375 497.5L36.875 496.875Z" fill="#87B9B0"/>
<path d="M810.625 496.875H889.375L895.625 498.75L901.875 504.375L904.375 510L905 515L903.75 520.625L900.625 525.625L895.625 530L892.5 531.25L888.125 531.875H810.625L803.75 529.375L798.75 524.375L796.25 518.75L795.625 512.5L797.5 506.25L803.125 500L807.5 497.5L810.625 496.875Z" fill="#87B9B0"/>
</svg>
