<svg width="1280" height="1280" viewBox="0 0 1280 1280" fill="none" xmlns="http://www.w3.org/2000/svg">
<path d="M476.875 75.625H506.25L521.25 77.5L535 80.625L548.125 85L563.75 92.5L575 100L581.25 105L587.5 110.625L595.625 118.75L603.75 129.375L609.375 138.125L615 148.125L620.625 161.25L626.25 178.125L630 194.375L632.5 212.5L633.75 230.625L634.375 323.75L633.125 335.625L630 349.375L625.625 360.625L620.625 370.625L614.375 379.375L608.75 385.625L603.125 391.25L595 396.875L587.5 400.625L586.875 425.625L585 437.5L582.5 445.625L577.5 455.625L570.625 465L561.25 475L530 506.25L529.375 507.5V516.875L531.875 528.125L535 536.875L538.75 541.25L545 545L552.5 548.125L568.125 551.875L588.75 555L645 562.5L668.125 566.25L686.875 570.625L699.375 574.375L715 580.625L726.875 586.875L737.5 594.375L746.25 601.875L751.875 608.125L757.5 616.25L761.25 622.5L768.75 618.75L779.375 612.5L807.5 596.25L822.5 587.5L831.25 582.5L846.25 573.75L856.25 568.125L862.5 566.25L868.75 566.875L878.75 571.875L893.125 580L908.125 588.75L925.625 598.75L940.625 607.5L973.125 626.25L990.625 636.25L1005.62 645L1018.75 652.5L1033.75 661.25L1051.25 671.25L1067.5 680.625L1082.5 689.375L1147.5 726.875L1158.75 733.75L1163.75 739.375L1165.62 744.375V1078.12L1163.75 1084.38L1158.75 1090L1150.62 1095L1101.88 1123.12L1086.88 1131.88L1069.38 1141.88L1036.88 1160.62L1021.88 1169.38L989.375 1188.12L971.875 1198.12L956.875 1206.88L924.375 1225.62L909.375 1234.38L891.875 1244.38L875.625 1253.75L868.75 1256.88H859.375L849.375 1251.88L834.375 1243.12L736.875 1186.88L721.875 1178.12L704.375 1168.12L671.875 1149.38L656.875 1140.62L575.625 1093.75L567.5 1088.12L563.75 1082.5L562.5 1075L561.875 982.5H110L104.375 981.25L99.375 977.5L96.25 973.75L94.375 969.375L93.75 966.25V661.875L95 648.125L98.125 635L101.875 625.625L107.5 615L113.75 606.875L115.625 604.375H116.875L118.125 601.875L125.625 595L134.375 588.75L146.25 581.875L158.75 576.25L176.25 570.625L199.375 565.625L228.125 561.25L276.875 555L298.75 551.25L311.875 548.125L321.875 543.75L326.875 540L329.375 536.875L332.5 524.375L334.375 508.125L333.75 505.625L314.375 486.25V485L312.5 484.375L308.125 479.375L293.75 465L286.875 455.625L281.875 445.625L278.75 435L277.5 425.625L276.875 400.625L269.375 396.875L261.875 391.25L255.625 385.625L249.375 378.75L243.125 369.375L238.125 359.375L234.375 349.375L231.25 336.25L230 325.625V315L231.875 301.875L235.625 289.375L240.625 279.375L246.25 271.25L247.5 270L246.875 266.25L241.25 251.875L236.875 236.875L233.75 221.25L231.875 206.875L230.625 189.375L230 155V134.375L230.625 116.875L232.5 103.75L235.625 95.625L240.625 88.75L245.625 85L252.5 81.875L255.625 81.25H263.125L277.5 83.75L306.25 90.625L323.125 93.75L338.75 95.625L347.5 96.25H366.875L385 94.375L401.875 91.25L421.25 86.25L435 82.5L456.25 78.125L476.875 75.625ZM488.125 110L471.875 111.25L452.5 114.375L430 120L413.75 124.375L395 128.125L374.375 130.625L365.625 131.25H346.25L330.625 130L316.25 128.125L291.25 123.125L268.125 117.5H265.625L265 150.625L265.625 188.125L266.875 205.625L270 225.625L274.375 241.25L279.375 253.125L284.375 262.5L290 269.375L293.125 273.125L300.625 278.75L309.375 283.125L316.25 285L320 285.625H332.5L345 283.125L356.25 279.375L370.625 272.5L382.5 265L394.375 256.25L403.75 248.125L413.75 238.75L421.875 233.125L431.25 228.75L440.625 226.25L445.625 225.625H467.5L480.625 227.5L500.625 232.5L521.875 240L541.25 248.125L561.875 258.125L577.5 266.25L591.875 274.375L598.125 278.125H598.75V231.875L597.5 214.375L595 198.75L591.25 183.125L586.875 171.25L580 156.875L573.75 147.5L566.875 139.375L560 132.5L550.625 125.625L540.625 120L531.875 116.25L520.625 113.125L511.25 111.25L495 110H488.125ZM451.25 259.375L442.5 261.25L435.625 265.625L428.75 272.5L421.875 278.125L416.25 283.125L406.25 290.625L393.75 298.75L382.5 305L369.375 311.25L354.375 316.25L342.5 318.75L331.875 320H312.5V423.125L313.75 431.25L317.5 438.75L325 446.875L345 466.875L349.375 471.875L354.375 476.875H355.625V478.125L388.75 511.25L394.375 513.75L408.75 516.875L420.625 518.125H443.75L459.375 516.25L471.875 513.125L476.875 510L535.625 451.25L538.75 447.5L541.875 444.375L546.875 438.75L550 433.125L551.25 428.125L551.875 421.875V291.875L541.25 286.25L520.625 276.875L503.75 270L484.375 263.75L470.625 260.625L461.875 259.375H451.25ZM269.375 299.375L266.875 305L265 317.5V323.75L266.875 336.25L270.625 346.25L275.625 356.25H277.5V305.625L273.125 300.625L271.25 299.375H269.375ZM586.875 311.875V356.25L589.375 355L594.375 345.625L597.5 335.625L599.375 325V320L592.5 315L586.875 311.875ZM366.875 538.75L363.75 546.875L363.125 549.375L366.25 553.125L371.25 557.5L375.625 561.875L380.625 566.25L385 570.625L390 575L400.625 585L410 593.75L420 603.125L427.5 610L431.875 613.75L434.375 612.5L441.25 605.625L446.25 601.25L456.25 591.875L464.375 584.375L475 574.375L493.75 556.875L501.25 550L499.375 543.75L496.875 538.75L487.5 543.75L474.375 548.125L461.875 550.625L441.875 552.5H423.125L406.875 551.25L392.5 548.75L380 545L370 540L366.875 538.75ZM337.5 575L331.25 578.125L323.75 581.25L325 585L335.625 608.125L365.625 673.75L371.25 686.25L373.125 687.5L381.875 676.25L386.875 669.375L393.125 661.25L400.625 651.25L406.875 643.125L408.125 641.25L407.5 638.75L400.625 631.875L395.625 627.5L385 617.5L376.875 610L366.875 600.625L356.25 590.625L348.75 583.75L339.375 575H337.5ZM525 575L517.5 582.5L512.5 586.875L508.125 591.25L503.125 595.625L492.5 605.625L489.375 608.125V609.375L486.875 610.625L481.25 616.25L476.25 620.625L471.875 625L466.875 629.375L462.5 633.75L457.5 638.125L456.25 639.375L456.875 641.875L463.125 650L468.75 657.5L478.75 670.625L486.25 680.625L491.25 687.5L493.75 685L501.875 667.5L521.875 623.75L532.5 600.625L540.625 582.5L540 580.625L530.625 576.875L526.875 575H525ZM287.5 588.75L234.375 595.625L205.625 600L188.75 603.75L172.5 608.75L161.25 613.75L153.75 618.125L146.25 623.75L140 630L135.625 636.875L131.875 645L129.375 655L128.75 668.125V947.5H196.25L196.875 848.125L197.5 818.75L200.625 812.5L201.25 810.625L203.75 809.375L208.125 806.875L210.625 806.25H217.5L223.125 808.125L227.5 811.875L230.625 818.125L231.25 821.25V944.375L231.875 947.5H562.5L563.125 746.875L564.375 741.25L568.125 735.625L576.875 730L641.875 692.5L656.875 683.75L670 676.25L685 667.5L702.5 657.5L718.75 648.125L729.375 641.875L730.625 640L726.875 633.125L720 625L711.875 618.75L700.625 612.5L688.125 607.5L672.5 603.125L655 599.375L634.375 596.25L576.25 588.75L574.375 591.875L566.25 609.375L556.875 630L545 655.625L539.375 668.125L528.75 691.25L521.875 706.25L512.5 726.875L508.75 733.125L505 736.25L498.125 738.75H493.125L486.25 736.25L483.75 733.75L481.25 734.375L475 742.5L470.625 748.75L473.125 760L495.625 857.5L498.125 869.375L497.5 875.625L495 880.625L489.375 886.875L483.125 893.125L478.125 897.5L474.375 900.625L465.625 909.375L460.625 913.75L450 923.75L443.75 929.375L438.75 932.5L433.75 933.75H428.75L422.5 931.25L416.25 925.625L411.25 921.25L390 901.25L381.875 893.75L374.375 886.875L369.375 881.875L366.25 875.625L365.625 873.75L366.25 865.625L384.375 788.75L393.125 751.875L393.75 748.75L390 743.125L383.125 734.375H380.625L375.625 737.5L371.25 738.75H365.625L359.375 736.25L356.25 733.75L352.5 727.5L345.625 713.125L338.75 698.125L329.375 677.5L321.875 661.25L301.875 617.5L290 591.25L288.75 588.75H287.5ZM863.125 604.375L855 609.375L843.75 615.625L828.75 624.375L812.5 633.75L802.5 639.375L799.375 640.625L800 642.5L816.25 651.875L831.25 660.625L880 688.75L895 697.5L912.5 707.5L945 726.25L960 735L976.25 744.375L993.75 754.375L1008.75 763.125L1041.25 781.875L1048.75 785.625L1063.75 776.875L1080 767.5L1095 758.75L1110.62 750L1112.5 748.75V747.5L1098.75 739.375L1082.5 730L1054.38 713.75L1039.38 705L1023.12 695.625L1005.62 685.625L990.625 676.875L876.875 611.25L865 604.375H863.125ZM762.5 662.5L729.375 681.875L718.125 688.125L715.625 690.625L729.375 698.125L743.125 706.25L756.25 713.75L772.5 723.125L787.5 731.875L820 750.625L835 759.375L852.5 769.375L867.5 778.125L900 796.875L917.5 806.875L934.375 816.875L945.625 823.125L960.625 831.875L963.75 833.75L966.25 833.125L980.625 825L994.375 816.875L1007.5 809.375L1012.5 806.25L1010 803.75L992.5 793.75L976.25 784.375L961.25 775.625L943.75 765.625L928.75 756.875L915.625 749.375L900.625 740.625L884.375 731.25L869.375 722.5L836.875 703.75L819.375 693.75L804.375 685L771.875 666.25L765.625 662.5H762.5ZM431.25 667.5L426.25 674.375L413.125 691.875L405 702.5L403.75 704.375L411.875 715L418.125 723.125L426.25 733.75L428.75 738.75L429.375 740.625V747.5L420 788.125L406.875 843.125L402.5 861.875V866.25L408.75 871.875L413.75 876.25L418.75 881.25L423.75 885.625L431.25 892.5L433.75 891.875L443.75 881.875L448.75 877.5L458.125 868.75L461.25 865.625L461.875 863.75L456.875 843.125L442.5 780.625L435.625 750L435 746.875V740.625L437.5 735L442.5 728.125L450 718.75L455.625 711.25L460.625 705L458.125 700.625L449.375 689.375L440.625 677.5L434.375 669.375L433.125 667.5H431.25ZM679.375 710.625L664.375 719.375L646.875 729.375L630.625 738.75L618.125 746.25L615.625 747.5V748.75L627.5 755L640 762.5L737.5 818.75L814.375 863.125L829.375 871.875L846.875 881.875L858.75 888.75L863.75 891.875L866.25 890.625L878.75 883.75L893.75 875L910 865.625L923.125 858.125L929.375 854.375L927.5 852.5L916.25 846.25L901.25 837.5L885 828.125L870 819.375L854.375 810.625L840.625 802.5L759.375 755.625L744.375 746.875L726.875 736.875L710.625 727.5L695.625 718.75L681.875 710.625H679.375ZM597.5 778.75V1065.62L602.5 1068.75L635 1087.5L648.125 1095L696.875 1123.12L711.875 1131.88L729.375 1141.88L744.375 1150.62L776.875 1169.38L794.375 1179.38L809.375 1188.12L841.875 1206.88L845.625 1209.38H846.875V922.5L843.75 920L811.25 901.25L793.75 891.25L777.5 881.875L762.5 873.125L713.75 845L698.75 836.25L663.75 816.25L633.75 798.75L616.25 788.75L601.25 780L599.375 778.75H597.5ZM1130 778.75L1123.12 782.5L1107.5 791.25L1092.5 800L1076.25 809.375L1065.62 815.625L1065 935L1063.75 941.875L1060 947.5L1053.75 951.875L1039.38 960L1024.38 968.75L1006.88 978.75L991.875 987.5L974.375 997.5L968.125 1001.25L960.625 1003.75L953.75 1003.12L948.75 1000.62L944.375 995.625L942.5 991.875L941.875 988.75V888.125L939.375 888.75L926.875 895.625L911.875 904.375L894.375 914.375L881.875 921.875V1209.38L890.625 1205L900 1199.38L948.75 1171.25L963.75 1162.5L1077.5 1096.88L1092.5 1088.12L1108.75 1078.75L1126.25 1068.75L1130 1066.88L1130.62 1065.62V778.75H1130ZM1028.75 836.875L996.25 855.625L981.25 864.375L976.25 867.5V956.25L979.375 955L1011.88 936.25L1025 928.75L1030 925.625L1030.62 924.375V836.875H1028.75Z" fill="url(#paint0_linear_50_161)"/>
<path d="M911.875 22.5H956.25L965.625 24.375L972.5 28.125L978.75 33.75L982.5 38.125L987.5 48.125L990 56.25L996.875 86.25L1001.88 88.75L1014.38 93.75L1020.62 96.875L1024.38 96.25L1030.62 91.875L1053.12 78.125L1061.25 74.375L1071.25 72.5H1076.88L1084.38 73.75L1090.62 76.25L1098.12 81.875L1127.5 111.25L1133.12 120L1135.62 128.125V139.375L1133.12 148.75L1128.12 158.75L1118.12 175L1113.75 181.875L1111.25 185.625L1112.5 189.375L1119.38 205.625L1121.88 211.25L1156.25 219.375L1164.38 222.5L1171.88 226.875L1176.88 231.25L1182.5 239.375L1185 246.25L1185.62 249.375V298.125L1183.75 305.625L1179.38 313.75L1176.25 317.5L1170 322.5L1161.25 326.875L1148.12 330.625L1121.25 336.875L1115.62 351.875L1111.25 361.875L1116.25 370.625L1121.88 379.375L1130 392.5L1133.75 401.25L1135.62 408.125V419.375L1133.12 428.125L1128.75 435L1121.88 442.5L1096.88 467.5L1090 471.875L1083.75 474.375L1073.75 475.625L1064.38 474.375L1055.62 471.25L1045.62 465.625L1035 458.75L1023.12 451.25L1020 451.875L1005 458.125L998.125 460.625H996.875L996.25 465.625L991.875 484.375L987.5 500.625L981.875 511.25L978.75 515L971.875 520.625L965 523.75L955 525.625H912.5L905.625 524.375L899.375 521.875L893.75 518.125L889.375 514.375L883.75 506.25L880 497.5L873.75 471.25L871.875 463.125V460.625L868.75 460L855.625 455L848.125 451.25H845L838.75 455.625L816.25 469.375L806.25 473.75L800.625 475H787.5L781.25 473.125L774.375 469.375L766.875 462.5L740 435.625L735 426.875L733.125 421.25L732.5 412.5L734.375 402.5L738.125 393.125L747.5 378.125L755 366.25L756.875 363.125L756.25 358.75L751.25 347.5L747.5 338.125L746.875 336.875L720 330.625L706.875 326.875L698.75 322.5L691.875 316.875L686.25 308.75L683.75 302.5L682.5 293.75V254.375L683.75 245.625L686.875 238.125L691.875 231.25L697.5 226.25L705 221.875L714.375 218.75L745 211.875L746.875 211.25L750 203.75L753.75 194.375L756.875 188.125L756.25 183.75L746.25 168.125L738.75 155.625L735 147.5L733.125 140.625L732.5 132.5L734.375 122.5L737.5 116.25L741.875 110.625L745 106.875H746.25L747.5 104.375H748.75L750 101.875H751.25L752.5 99.375H753.75L755 96.875H756.25L757.5 94.375H758.75L760 91.875H761.25L762.5 89.375H763.75L765 86.875H766.25L767.5 84.375H768.75V83.125L776.875 76.875L784.375 73.75L791.25 72.5H796.875L807.5 74.375L817.5 79.375L830 86.875L840.625 93.75L845.625 96.875L848.75 96.25L860 91.25L871.25 86.875L873.75 76.875L879.375 53.125L883.125 43.125L886.875 36.875L892.5 30.625L898.125 26.875L905 23.75L911.875 22.5ZM915 57.5L913.125 62.5L903.75 103.125L901.25 109.375L897.5 114.375L890.625 117.5L874.375 123.125L859.375 130L851.875 133.75L849.375 134.375H841.25L835.625 131.875L824.375 125L810.625 116.25L799.375 109.375L796.25 107.5L793.75 108.125L768.125 133.75L768.75 137.5L773.75 146.25L782.5 160L790 171.875L794.375 180.625L795 182.5V188.125L791.875 196.25L784.375 211.875L780 224.375L776.25 234.375L772.5 239.375L766.25 242.5L748.125 246.875L721.25 253.125L718.125 254.375L717.5 256.875V291.25L718.125 293.75L729.375 296.875L765 305L772.5 308.75L776.25 313.75L780 324.375L786.25 340.625L793.125 354.375L795 360V365L793.125 370.625L789.375 377.5L780.625 391.25L771.25 406.25L767.5 413.75L793.75 440L795.625 440.625L803.75 436.25L814.375 429.375L826.25 421.875L834.375 416.875L840.625 413.75L847.5 413.125L853.75 415L863.75 420L873.125 424.375L886.875 429.375L895 432.5L898.75 435L902.5 441.25L905.625 453.125L911.875 480.625L915 490.625H953.125L955 487.5L964.375 446.875L966.875 439.375L969.375 435.625L973.125 432.5L983.125 428.75L996.875 423.75L1015 415L1018.12 413.75L1024.38 413.125L1029.38 414.375L1035.62 417.5L1046.25 424.375L1061.25 433.75L1070.62 439.375L1073.75 440.625L1078.75 436.25L1081.25 433.75V432.5L1083.75 431.25V430L1086.25 428.75L1100.62 414.375L1100 410.625L1094.38 401.25L1079.38 377.5L1075 370L1073.75 366.25V358.75L1080.62 344.375L1085.62 332.5L1092.5 313.125L1096.88 308.125L1101.88 305.625L1111.25 303.125L1146.88 295L1150 293.75L1150.62 293.125V255L1145 252.5L1103.75 243.125L1098.12 240.625L1093.75 236.875L1090.62 230L1085 213.75L1079.38 201.25L1074.38 190.625L1073.75 188.75V181.875L1076.25 175.625L1083.75 163.75L1093.12 148.75L1100 137.5L1100.62 133.75L1074.38 107.5L1071.25 108.125L1058.75 115.625L1044.38 125L1031.88 132.5L1026.88 134.375H1018.75L1011.25 131.25L1001.25 126.25L985.625 120L974.375 116.25L969.375 112.5L966.875 108.75L964.375 101.25L956.25 65L953.75 57.5H915Z" fill="url(#paint1_linear_50_161)"/>
<path d="M921.875 156.875H946.25L961.25 159.375L972.5 162.5L984.375 167.5L995 173.125L1002.5 178.125L1011.25 185L1020 193.125L1025.62 200L1030.62 206.25L1037.5 217.5L1043.75 230.625L1047.5 241.875L1050.62 256.25L1051.88 266.875V281.25L1050.62 291.875L1048.12 304.375L1043.75 317.5L1036.25 333.125L1030 342.5L1023.12 351.25L1018.75 355.625L1016.88 358.125H1015.62V359.375L1008.75 365L1002.5 370L989.375 378.125L976.875 383.75L960.625 388.75L945 391.25L933.125 391.875L922.5 391.25L907.5 388.75L895 385L883.125 380L873.75 375L866.25 370L857.5 363.125L849.375 355.625L843.75 349.375L836.25 339.375L828.75 326.25L824.375 316.25L821.25 306.875L818.75 296.875L816.875 283.125V265.625L818.75 250.625L822.5 236.875L826.25 227.5L831.25 217.5L837.5 206.875L844.375 198.125L853.125 188.75L860 182.5L870.625 175L881.25 168.75L894.375 163.125L906.875 159.375L921.875 156.875ZM930.625 191.25L919.375 192.5L907.5 195.625L896.875 200L886.875 206.25L880.625 211.25L873.125 218.125L865 228.75L859.375 238.75L855.625 248.125L852.5 261.25L851.875 265.625V282.5L853.75 293.125L856.875 303.125L861.875 314.375L868.125 323.75L875.625 332.5L881.875 338.125L890.625 344.375L901.25 350L914.375 354.375L924.375 356.25L936.25 356.875L948.125 355.625L960.625 352.5L970.625 348.125L978.75 343.75L986.25 338.125L992.5 332.5L998.125 326.875L1004.38 318.125L1010 307.5L1013.75 296.875L1016.25 285.625L1016.88 279.375V268.75L1015 255.625L1011.25 243.75L1006.25 233.125L1000 223.75L993.125 216.25L986.875 210L976.875 203.125L967.5 198.125L955 193.75L945.625 191.875L937.5 191.25H930.625Z" fill="url(#paint2_linear_50_161)"/>
<path d="M244.375 760.625H335L341.25 762.5L346.25 766.25L349.375 771.25L350.625 775V781.25L348.125 787.5L343.75 792.5L338.75 795L335.625 795.625H243.125L237.5 793.75L232.5 789.375L230 785.625L228.75 782.5V773.75L231.875 767.5L236.875 763.125L241.25 761.25L244.375 760.625Z" fill="url(#paint3_linear_50_161)"/>
<path d="M402.5 425H408.75L414.375 426.875L420 431.875L422.5 435.625L425 437.5L427.5 438.125H436.875L441.875 436.25L446.25 430L449.375 427.5L455.625 425H461.875L468.75 427.5L473.125 431.875L475.625 436.875L476.25 438.75V446.25L473.75 452.5L468.125 460L462.5 465L453.75 470L443.75 473.125L434.375 474.375L423.75 473.75L413.75 471.25L403.75 466.25L396.875 460.625L391.875 454.375L388.75 447.5L388.125 445.625V438.75L390.625 433.125L395 428.125L400 425.625L402.5 425Z" fill="url(#paint4_linear_50_161)"/>
<path d="M358.125 329.375H373.125L386.25 331.25L396.875 334.375L406.25 339.375L413.75 346.25L416.25 351.25L416.875 353.75V359.375L414.375 365.625L410 370.625L405 373.125L403.125 373.75H395L387.5 370L383.75 367.5L372.5 365H358.75L350 366.875L341.875 369.375H334.375L328.125 366.25L323.125 360.625L321.25 355.625V348.125L323.75 342.5L326.25 339.375L331.875 335.625L340 332.5L352.5 330L358.125 329.375Z" fill="url(#paint5_linear_50_161)"/>
<path d="M488.75 329.375H503.75L516.875 331.25L527.5 334.375L533.75 337.5L538.125 341.875L540.625 346.875L541.25 349.375V354.375L538.75 361.25L534.375 366.25L529.375 368.75L527.5 369.375H520L506.875 365.625L503.125 365H489.375L480.625 366.875L474.375 370L469.375 373.125L466.875 373.75H458.75L453.125 371.25L450 368.75L446.875 363.75L445.625 360V353.125L448.125 346.875L452.5 341.875L461.25 336.25L471.25 332.5L478.75 330.625L488.75 329.375Z" fill="url(#paint6_linear_50_161)"/>
<path d="M365.625 376.875H370.625L377.5 378.75L383.75 384.375L386.25 390V398.75L383.125 405L378.75 409.375L371.875 411.875H364.375L358.75 410L354.375 406.25L351.25 400.625L350 396.25L350.625 389.375L353.125 384.375L355.625 381.25L360.625 378.125L365.625 376.875Z" fill="url(#paint7_linear_50_161)"/>
<path d="M488.75 376.875H494.375L500.625 378.75L506.25 383.125L509.375 389.375L510 391.875V397.5L507.5 403.75L503.75 408.125L498.125 411.25L495.625 411.875H488.125L482.5 410L476.875 405L474.375 400L473.75 397.5V390.625L476.25 385L480.625 380L485.625 377.5L488.75 376.875Z" fill="url(#paint8_linear_50_161)"/>
<defs>
<linearGradient id="paint0_linear_50_161" x1="629.688" y1="75.625" x2="629.688" y2="1256.88" gradientUnits="userSpaceOnUse">
<stop stop-color="#87B9B0"/>
<stop offset="1" stop-color="#87DCCD"/>
</linearGradient>
<linearGradient id="paint1_linear_50_161" x1="934.062" y1="22.5" x2="934.062" y2="525.625" gradientUnits="userSpaceOnUse">
<stop stop-color="#87B9B0"/>
<stop offset="1" stop-color="#87DCCD"/>
</linearGradient>
<linearGradient id="paint2_linear_50_161" x1="934.375" y1="156.875" x2="934.375" y2="391.875" gradientUnits="userSpaceOnUse">
<stop stop-color="#87B9B0"/>
<stop offset="1" stop-color="#87DCCD"/>
</linearGradient>
<linearGradient id="paint3_linear_50_161" x1="289.688" y1="760.625" x2="289.688" y2="795.625" gradientUnits="userSpaceOnUse">
<stop stop-color="#87B9B0"/>
<stop offset="1" stop-color="#87DCCD"/>
</linearGradient>
<linearGradient id="paint4_linear_50_161" x1="432.188" y1="425" x2="432.188" y2="474.375" gradientUnits="userSpaceOnUse">
<stop stop-color="#87B9B0"/>
<stop offset="1" stop-color="#87DCCD"/>
</linearGradient>
<linearGradient id="paint5_linear_50_161" x1="369.062" y1="329.375" x2="369.062" y2="373.75" gradientUnits="userSpaceOnUse">
<stop stop-color="#87B9B0"/>
<stop offset="1" stop-color="#87DCCD"/>
</linearGradient>
<linearGradient id="paint6_linear_50_161" x1="493.438" y1="329.375" x2="493.438" y2="373.75" gradientUnits="userSpaceOnUse">
<stop stop-color="#87B9B0"/>
<stop offset="1" stop-color="#87DCCD"/>
</linearGradient>
<linearGradient id="paint7_linear_50_161" x1="368.125" y1="376.875" x2="368.125" y2="411.875" gradientUnits="userSpaceOnUse">
<stop stop-color="#87B9B0"/>
<stop offset="1" stop-color="#87DCCD"/>
</linearGradient>
<linearGradient id="paint8_linear_50_161" x1="491.875" y1="376.875" x2="491.875" y2="411.875" gradientUnits="userSpaceOnUse">
<stop stop-color="#87B9B0"/>
<stop offset="1" stop-color="#87DCCD"/>
</linearGradient>
</defs>
</svg>
